<svg width="512" height="452" viewBox="0 0 512 452" fill="none" xmlns="http://www.w3.org/2000/svg">
<rect x="0.5" y="0.5" width="511" height="451" fill="#F2F0E7" stroke="#1C2024"/>
<g clip-path="url(#clip0_1588_273)">
<path d="M43.3709 178.67H467.63C470.225 178.67 472.329 180.772 472.329 183.365V269.214C472.329 271.807 470.225 273.909 467.63 273.909H43.3709C40.7757 273.909 38.6719 271.807 38.6719 269.214V183.365C38.6719 180.772 40.7757 178.67 43.3709 178.67Z" fill="#1C2024"/>
<path d="M43.3709 178.67H467.63C470.225 178.67 472.329 180.772 472.329 183.365V269.214C472.329 271.807 470.225 273.909 467.63 273.909H43.3709C40.7757 273.909 38.6719 271.807 38.6719 269.214V183.365C38.6719 180.772 40.7757 178.67 43.3709 178.67Z" stroke="#1C2024" stroke-width="0.772647"/>
<path d="M62.905 241.838C62.5681 241.838 62.2534 241.806 61.961 241.742C61.6686 241.679 61.4366 241.609 61.2649 241.533L61.7226 240.037C62.3011 240.215 62.816 240.278 63.2673 240.227C63.7187 240.183 64.1192 239.98 64.4688 239.618C64.8184 239.262 65.1299 238.716 65.4033 237.979L65.9372 236.493L60.5498 221.717H62.3901L66.7382 234.111H66.8718L71.2199 221.717H73.0602L66.8623 238.665C66.6015 239.37 66.2805 239.958 65.8991 240.428C65.5177 240.904 65.076 241.256 64.5737 241.485C64.0779 241.72 63.5216 241.838 62.905 241.838ZM81.5492 236.655C80.2842 236.655 79.1654 236.334 78.1927 235.693C77.2264 235.051 76.47 234.165 75.9233 233.035C75.3766 231.898 75.1032 230.586 75.1032 229.1C75.1032 227.601 75.3766 226.283 75.9233 225.146C76.47 224.003 77.2264 223.114 78.1927 222.479C79.1654 221.837 80.2842 221.516 81.5492 221.516C82.8143 221.516 83.9298 221.837 84.8961 222.479C85.8624 223.12 86.6189 224.009 87.1656 225.146C87.7186 226.283 87.9952 227.601 87.9952 229.1C87.9952 230.586 87.7219 231.898 87.1752 233.035C86.6285 234.165 85.8688 235.051 84.8961 235.693C83.9298 236.334 82.8143 236.655 81.5492 236.655ZM81.5492 235.102C82.5663 235.102 83.4277 234.829 84.1334 234.283C84.8389 233.736 85.3729 233.009 85.7352 232.101C86.104 231.193 86.2884 230.192 86.2884 229.1C86.2884 228.008 86.104 227.004 85.7352 226.089C85.3729 225.175 84.8389 224.441 84.1334 223.889C83.4277 223.336 82.5663 223.06 81.5492 223.06C80.5385 223.06 79.6771 223.336 78.9651 223.889C78.2595 224.441 77.7224 225.175 77.3536 226.089C76.9912 227.004 76.8101 228.008 76.8101 229.1C76.8101 230.192 76.9912 231.193 77.3536 232.101C77.7224 233.009 78.2595 233.736 78.9651 234.283C79.6707 234.829 80.5322 235.102 81.5492 235.102ZM101.028 230.758V221.717H102.725V236.35H101.028V233.921H100.894C100.551 234.67 100.008 235.296 99.2637 235.797C98.5199 236.293 97.6109 236.54 96.5365 236.54C95.6021 236.54 94.7725 236.337 94.0478 235.931C93.3232 235.518 92.7542 234.915 92.3409 234.121C91.9278 233.327 91.7212 232.352 91.7212 231.196V221.717H93.4185V231.091C93.4185 232.234 93.7553 233.155 94.4292 233.854C95.103 234.546 95.9677 234.892 97.0228 234.892C97.684 234.892 98.3198 234.734 98.93 234.416C99.5402 234.098 100.042 233.635 100.437 233.025C100.831 232.409 101.028 231.653 101.028 230.758ZM107.219 236.35V221.717H108.868V223.965H108.992C109.285 223.228 109.793 222.634 110.518 222.183C111.249 221.726 112.075 221.497 112.997 221.497C113.137 221.497 113.293 221.501 113.464 221.507C113.636 221.513 113.779 221.52 113.893 221.526V223.25C113.817 223.238 113.684 223.219 113.493 223.193C113.302 223.168 113.096 223.155 112.873 223.155C112.11 223.155 111.43 223.317 110.833 223.641C110.241 223.959 109.774 224.4 109.431 224.965C109.088 225.531 108.916 226.175 108.916 226.899V236.35H107.219ZM123.62 227.185V228.786H115.495V227.185H123.62ZM127.882 241.838V221.717H129.532V224.508H129.732C129.935 224.07 130.215 223.622 130.571 223.165C130.927 222.701 131.397 222.31 131.982 221.993C132.573 221.675 133.317 221.516 134.214 221.516C135.421 221.516 136.477 221.834 137.379 222.469C138.288 223.098 138.994 223.981 139.496 225.118C140.005 226.248 140.259 227.566 140.259 229.071C140.259 230.583 140.005 231.907 139.496 233.044C138.994 234.181 138.288 235.067 137.379 235.702C136.477 236.337 135.428 236.655 134.233 236.655C133.349 236.655 132.608 236.496 132.011 236.179C131.42 235.861 130.94 235.47 130.571 235.007C130.209 234.537 129.929 234.079 129.732 233.635H129.579V241.838H127.882ZM129.56 229.043C129.56 230.224 129.735 231.272 130.085 232.187C130.441 233.095 130.949 233.809 131.61 234.33C132.278 234.845 133.085 235.102 134.032 235.102C135.005 235.102 135.825 234.835 136.492 234.302C137.166 233.762 137.678 233.035 138.028 232.12C138.384 231.205 138.562 230.18 138.562 229.043C138.562 227.919 138.387 226.906 138.037 226.004C137.694 225.102 137.185 224.387 136.512 223.86C135.838 223.327 135.011 223.06 134.032 223.06C133.079 223.06 132.268 223.317 131.601 223.831C130.933 224.34 130.425 225.045 130.075 225.946C129.732 226.842 129.56 227.874 129.56 229.043ZM143.983 236.35V221.717H145.632V223.965H145.756C146.049 223.228 146.557 222.634 147.282 222.183C148.013 221.726 148.839 221.497 149.761 221.497C149.901 221.497 150.057 221.501 150.228 221.507C150.4 221.513 150.543 221.52 150.658 221.526V223.25C150.581 223.238 150.448 223.219 150.257 223.193C150.066 223.168 149.86 223.155 149.637 223.155C148.874 223.155 148.194 223.317 147.597 223.641C147.005 223.959 146.538 224.4 146.195 224.965C145.852 225.531 145.68 226.175 145.68 226.899V236.35H143.983ZM158.801 236.655C157.536 236.655 156.417 236.334 155.444 235.693C154.478 235.051 153.722 234.165 153.175 233.035C152.628 231.898 152.355 230.586 152.355 229.1C152.355 227.601 152.628 226.283 153.175 225.146C153.722 224.003 154.478 223.114 155.444 222.479C156.417 221.837 157.536 221.516 158.801 221.516C160.066 221.516 161.181 221.837 162.148 222.479C163.114 223.12 163.87 224.009 164.417 225.146C164.97 226.283 165.247 227.601 165.247 229.1C165.247 230.586 164.973 231.898 164.427 233.035C163.88 234.165 163.12 235.051 162.148 235.693C161.181 236.334 160.066 236.655 158.801 236.655ZM158.801 235.102C159.818 235.102 160.679 234.829 161.385 234.283C162.09 233.736 162.624 233.009 162.987 232.101C163.355 231.193 163.54 230.192 163.54 229.1C163.54 228.008 163.355 227.004 162.987 226.089C162.624 225.175 162.09 224.441 161.385 223.889C160.679 223.336 159.818 223.06 158.801 223.06C157.79 223.06 156.929 223.336 156.217 223.889C155.511 224.441 154.974 225.175 154.605 226.089C154.243 227.004 154.062 228.008 154.062 229.1C154.062 230.192 154.243 231.193 154.605 232.101C154.974 233.009 155.511 233.736 156.217 234.283C156.922 234.829 157.784 235.102 158.801 235.102ZM174.998 221.717V223.193H167.8V221.717H174.998ZM170.05 236.35V219.573C170.05 218.785 170.231 218.122 170.594 217.582C170.962 217.042 171.442 216.632 172.034 216.353C172.625 216.073 173.25 215.934 173.912 215.934C174.357 215.934 174.726 215.972 175.019 216.048C175.317 216.118 175.552 216.188 175.723 216.258L175.228 217.744C175.1 217.706 174.945 217.661 174.761 217.61C174.577 217.56 174.345 217.534 174.064 217.534C173.327 217.534 172.758 217.741 172.358 218.153C171.957 218.566 171.757 219.157 171.757 219.925L171.747 236.35H170.05ZM178.406 236.35V221.717H180.112V236.35H178.406ZM179.273 219.201C178.924 219.201 178.625 219.084 178.376 218.849C178.129 218.608 178.005 218.319 178.005 217.982C178.005 217.645 178.129 217.36 178.376 217.124C178.625 216.883 178.924 216.762 179.273 216.762C179.622 216.762 179.922 216.883 180.17 217.124C180.417 217.36 180.542 217.645 180.542 217.982C180.542 218.319 180.417 218.608 180.17 218.849C179.922 219.084 179.622 219.201 179.273 219.201ZM186.299 216.839V236.35H184.601V216.839H186.299ZM196.711 236.655C195.344 236.655 194.163 236.337 193.164 235.702C192.166 235.061 191.394 234.175 190.846 233.044C190.307 231.907 190.037 230.599 190.037 229.119C190.037 227.645 190.307 226.337 190.846 225.194C191.394 224.044 192.147 223.145 193.107 222.498C194.073 221.844 195.188 221.516 196.454 221.516C197.248 221.516 198.015 221.663 198.752 221.955C199.489 222.24 200.151 222.682 200.736 223.279C201.327 223.87 201.794 224.616 202.138 225.518C202.48 226.413 202.652 227.474 202.652 228.7V229.538H191.209V228.042H200.916C200.916 227.102 200.725 226.258 200.344 225.508C199.969 224.752 199.444 224.155 198.77 223.717C198.103 223.279 197.331 223.06 196.454 223.06C195.525 223.06 194.709 223.308 194.003 223.803C193.298 224.298 192.745 224.952 192.345 225.766C191.95 226.578 191.75 227.468 191.743 228.433V229.329C191.743 230.491 191.943 231.507 192.345 232.377C192.752 233.241 193.326 233.911 194.07 234.387C194.814 234.864 195.695 235.102 196.711 235.102C197.404 235.102 198.012 234.994 198.533 234.778C199.06 234.562 199.502 234.273 199.858 233.911C200.22 233.543 200.494 233.139 200.678 232.701L202.289 233.225C202.066 233.841 201.701 234.41 201.192 234.931C200.69 235.451 200.062 235.87 199.305 236.188C198.554 236.499 197.691 236.655 196.711 236.655Z" fill="#F2F0E7"/>
<path d="M231.334 209.523H295.778C298.374 209.523 300.477 211.625 300.477 214.218V238.364C300.477 240.956 298.374 243.058 295.778 243.058H231.334C228.739 243.058 226.635 240.956 226.635 238.364V214.218C226.635 211.625 228.739 209.523 231.334 209.523Z" stroke="#F2F0E7" stroke-width="0.772647"/>
<path d="M241.162 233.237C240.513 233.237 239.923 233.115 239.394 232.87C238.864 232.621 238.444 232.263 238.132 231.796C237.821 231.325 237.665 230.756 237.665 230.089C237.665 229.502 237.78 229.027 238.011 228.662C238.244 228.293 238.552 228.004 238.939 227.795C239.327 227.586 239.754 227.431 240.221 227.328C240.693 227.222 241.167 227.137 241.643 227.075C242.266 226.995 242.771 226.935 243.159 226.895C243.55 226.85 243.834 226.777 244.013 226.675C244.195 226.572 244.287 226.395 244.287 226.141V226.088C244.287 225.43 244.105 224.918 243.746 224.554C243.39 224.189 242.849 224.007 242.124 224.007C241.372 224.007 240.783 224.172 240.354 224.501C239.927 224.83 239.628 225.181 239.453 225.554L237.959 225.021C238.226 224.398 238.582 223.914 239.026 223.567C239.476 223.216 239.965 222.971 240.495 222.833C241.03 222.691 241.555 222.62 242.07 222.62C242.399 222.62 242.778 222.66 243.205 222.74C243.637 222.816 244.053 222.973 244.453 223.214C244.859 223.454 245.194 223.816 245.461 224.301C245.729 224.785 245.862 225.434 245.862 226.248V232.997H244.287V231.61H244.206C244.1 231.832 243.922 232.07 243.672 232.323C243.423 232.577 243.092 232.792 242.678 232.97C242.263 233.148 241.759 233.237 241.162 233.237ZM241.403 231.823C242.026 231.823 242.551 231.701 242.978 231.456C243.41 231.212 243.735 230.896 243.952 230.509C244.175 230.122 244.287 229.716 244.287 229.289V227.848C244.22 227.928 244.073 228.002 243.846 228.069C243.623 228.131 243.366 228.186 243.072 228.235C242.782 228.28 242.5 228.32 242.224 228.355C241.952 228.386 241.732 228.413 241.563 228.435C241.153 228.489 240.77 228.575 240.415 228.695C240.063 228.811 239.778 228.987 239.561 229.222C239.347 229.453 239.24 229.769 239.24 230.169C239.24 230.716 239.443 231.13 239.848 231.41C240.258 231.685 240.776 231.823 241.403 231.823ZM252.902 233.21C251.941 233.21 251.112 232.984 250.418 232.53C249.724 232.076 249.191 231.452 248.817 230.656C248.443 229.86 248.257 228.951 248.257 227.928C248.257 226.888 248.447 225.97 248.83 225.174C249.217 224.374 249.756 223.749 250.445 223.3C251.139 222.847 251.95 222.62 252.875 222.62C253.596 222.62 254.246 222.753 254.825 223.02C255.402 223.287 255.876 223.66 256.247 224.14C256.616 224.621 256.844 225.181 256.934 225.821H255.358C255.238 225.354 254.971 224.941 254.558 224.581C254.148 224.216 253.596 224.034 252.902 224.034C252.287 224.034 251.749 224.194 251.287 224.514C250.828 224.83 250.469 225.277 250.212 225.854C249.958 226.428 249.832 227.101 249.832 227.875C249.832 228.667 249.956 229.356 250.205 229.942C250.459 230.529 250.814 230.985 251.274 231.31C251.735 231.634 252.279 231.796 252.902 231.796C253.312 231.796 253.682 231.725 254.016 231.583C254.351 231.441 254.633 231.236 254.864 230.969C255.096 230.703 255.26 230.383 255.358 230.009H256.934C256.844 230.614 256.624 231.158 256.272 231.643C255.926 232.123 255.465 232.506 254.891 232.79C254.321 233.07 253.658 233.21 252.902 233.21ZM263.695 222.753V224.087H258.381V222.753H263.695ZM259.931 220.299H261.505V230.062C261.505 230.507 261.57 230.841 261.699 231.063C261.833 231.281 262.002 231.427 262.206 231.503C262.416 231.574 262.636 231.61 262.867 231.61C263.041 231.61 263.184 231.601 263.295 231.583C263.405 231.561 263.495 231.543 263.561 231.53L263.882 232.943C263.776 232.984 263.625 233.024 263.435 233.063C263.243 233.108 263.001 233.13 262.707 233.13C262.263 233.13 261.826 233.035 261.399 232.843C260.976 232.652 260.625 232.361 260.344 231.97C260.069 231.579 259.931 231.085 259.931 230.489V220.299ZM266.065 232.997V222.753H267.64V232.997H266.065ZM266.865 221.046C266.559 221.046 266.293 220.942 266.072 220.733C265.853 220.524 265.744 220.273 265.744 219.979C265.744 219.686 265.853 219.434 266.072 219.226C266.293 219.017 266.559 218.912 266.865 218.912C267.173 218.912 267.436 219.017 267.653 219.226C267.876 219.434 267.987 219.686 267.987 219.979C267.987 220.273 267.876 220.524 267.653 220.733C267.436 220.942 267.173 221.046 266.865 221.046ZM278.908 222.753L275.118 232.997H273.515L269.723 222.753H271.433L274.263 230.916H274.37L277.2 222.753H278.908ZM284.919 233.21C283.931 233.21 283.08 232.992 282.363 232.557C281.651 232.117 281.102 231.503 280.714 230.716C280.331 229.925 280.141 229.004 280.141 227.955C280.141 226.906 280.331 225.981 280.714 225.181C281.102 224.376 281.64 223.749 282.329 223.3C283.023 222.847 283.834 222.62 284.759 222.62C285.294 222.62 285.82 222.709 286.341 222.887C286.862 223.065 287.336 223.354 287.763 223.754C288.189 224.149 288.53 224.674 288.784 225.328C289.038 225.981 289.164 226.786 289.164 227.742V228.409H281.262V227.048H287.562C287.562 226.47 287.447 225.954 287.216 225.501C286.988 225.048 286.664 224.69 286.241 224.427C285.822 224.165 285.328 224.034 284.759 224.034C284.132 224.034 283.588 224.189 283.131 224.501C282.677 224.807 282.328 225.208 282.082 225.701C281.838 226.195 281.715 226.724 281.715 227.288V228.195C281.715 228.969 281.848 229.625 282.116 230.163C282.387 230.696 282.763 231.103 283.243 231.383C283.724 231.659 284.283 231.796 284.919 231.796C285.334 231.796 285.707 231.739 286.041 231.623C286.378 231.503 286.671 231.325 286.915 231.089C287.16 230.849 287.349 230.552 287.482 230.196L289.004 230.623C288.845 231.138 288.575 231.592 288.196 231.983C287.819 232.37 287.352 232.672 286.795 232.89C286.239 233.103 285.613 233.21 284.919 233.21Z" fill="#F2F0E7"/>
<path d="M372.753 199.463H326.21C324.233 199.463 322.63 201.064 322.63 203.04V249.542C322.63 251.517 324.233 253.119 326.21 253.119H372.753C374.731 253.119 376.334 251.517 376.334 249.542V203.04C376.334 201.064 374.731 199.463 372.753 199.463Z" fill="#F2F0E7"/>
<path d="M357.666 215.817C355.409 214.054 352.568 213.004 349.482 213.004C342.138 213.004 336.185 218.952 336.185 226.29C336.185 233.628 342.138 239.576 349.482 239.576C356.827 239.576 362.78 233.628 362.78 226.29H350.505" stroke="#1C2024" stroke-width="0.772647"/>
<path d="M447.938 199.463H401.395C399.417 199.463 397.814 201.064 397.814 203.04V249.542C397.814 251.517 399.417 253.119 401.395 253.119H447.938C449.915 253.119 451.518 251.517 451.518 249.542V203.04C451.518 201.064 449.915 199.463 447.938 199.463Z" fill="#F2F0E7"/>
<path d="M439.636 213.674H409.699C407.104 213.674 405 215.776 405 218.369V234.211C405 236.804 407.104 238.906 409.699 238.906H439.636C442.231 238.906 444.335 236.804 444.335 234.211V218.369C444.335 215.776 442.231 213.674 439.636 213.674Z" stroke="#1C2024" stroke-width="0.772647"/>
<path d="M420.639 221.619L428.694 226.267L420.639 230.962V221.619Z" stroke="#1C2024" stroke-width="0.772647"/>
</g>
<defs>
<clipPath id="clip0_1588_273">
<rect width="435" height="96.5808" fill="white" transform="translate(38 178)"/>
</clipPath>
</defs>
</svg>
