<svg width="512" height="452" viewBox="0 0 512 452" fill="none" xmlns="http://www.w3.org/2000/svg">
<rect x="0.5" y="0.5" width="511" height="451" fill="#81B300" stroke="#1C2024"/>
<g clip-path="url(#clip0_1591_576)">
<path d="M41 104.911C41 102.199 43.1979 100 45.9091 100H468.091C470.802 100 473 102.199 473 104.911V346.755C473 349.467 470.802 351.666 468.091 351.666H45.9091C43.1979 351.666 41 349.467 41 346.755V104.911Z" fill="#1C2024"/>
<mask id="mask0_1591_576" style="mask-type:alpha" maskUnits="userSpaceOnUse" x="60" y="129" width="31" height="30">
<path d="M90.0918 129.463H60.6372V158.926H90.0918V129.463Z" fill="#D9D9D9"/>
</mask>
<g mask="url(#mask0_1591_576)">
<path d="M69.1309 144.809L76.2395 151.92L75.3639 152.789L66.7729 144.195L75.3639 135.602L76.2395 136.47L69.1309 143.581H83.9548V144.809H69.1309Z" fill="#81B300"/>
</g>
<mask id="mask1_1591_576" style="mask-type:alpha" maskUnits="userSpaceOnUse" x="99" y="129" width="31" height="30">
<path d="M129.363 129.463H99.9082V158.926H129.363V129.463Z" fill="#D9D9D9"/>
</mask>
<g mask="url(#mask1_1591_576)">
<path d="M120.869 144.809H106.045V143.581H120.869L113.76 136.47L114.636 135.602L123.227 144.195L114.636 152.789L113.76 151.92L120.869 144.809Z" fill="#81B300"/>
</g>
<mask id="mask2_1591_576" style="mask-type:alpha" maskUnits="userSpaceOnUse" x="139" y="129" width="30" height="30">
<path d="M168.635 129.463H139.18V158.926H168.635V129.463Z" fill="#D9D9D9"/>
</mask>
<g mask="url(#mask2_1591_576)">
<path d="M154.003 152.789C151.604 152.789 149.573 151.956 147.908 150.292C146.244 148.628 145.412 146.597 145.412 144.199C145.412 141.801 146.244 139.768 147.908 138.102C149.573 136.435 151.604 135.602 154.003 135.602C155.461 135.602 156.827 135.948 158.1 136.641C159.373 137.335 160.398 138.302 161.177 139.544V135.602H162.404V142.023H155.985V140.795H160.526C159.887 139.571 158.988 138.604 157.83 137.894C156.671 137.184 155.395 136.829 154.003 136.829C151.957 136.829 150.218 137.545 148.787 138.978C147.355 140.41 146.639 142.149 146.639 144.195C146.639 146.241 147.355 147.98 148.787 149.413C150.218 150.845 151.957 151.561 154.003 151.561C155.578 151.561 156.999 151.111 158.267 150.21C159.536 149.31 160.425 148.123 160.937 146.65H162.239C161.698 148.489 160.67 149.971 159.155 151.098C157.639 152.225 155.922 152.789 154.003 152.789Z" fill="#81B300"/>
</g>
<path d="M428.818 120.256H212.818C199.6 120.256 188.886 130.974 188.886 144.195C188.886 157.416 199.6 168.134 212.818 168.134H428.818C442.035 168.134 452.749 157.416 452.749 144.195C452.749 130.974 442.035 120.256 428.818 120.256Z" stroke="#81B300" stroke-width="0.887036"/>
<path d="M212.818 163.223C223.324 163.223 231.841 154.704 231.841 144.194C231.841 133.685 223.324 125.166 212.818 125.166C202.312 125.166 193.795 133.685 193.795 144.194C193.795 154.704 202.312 163.223 212.818 163.223Z" stroke="#81B300" stroke-width="0.887036"/>
<path d="M452.75 203.736H61.2505V265.118H452.75V203.736Z" stroke="#81B300" stroke-width="0.887036"/>
<path d="M162.161 241.401C161.157 241.401 160.292 241.164 159.567 240.689C158.842 240.215 158.284 239.562 157.893 238.729C157.503 237.897 157.308 236.946 157.308 235.876C157.308 234.788 157.508 233.828 157.907 232.995C158.312 232.158 158.874 231.505 159.595 231.036C160.32 230.561 161.166 230.324 162.133 230.324C162.886 230.324 163.565 230.464 164.169 230.742C164.774 231.021 165.268 231.412 165.655 231.915C166.04 232.417 166.28 233.003 166.373 233.672H164.727C164.602 233.184 164.322 232.751 163.89 232.375C163.463 231.993 162.886 231.803 162.161 231.803C161.519 231.803 160.957 231.97 160.473 232.305C159.995 232.635 159.62 233.102 159.351 233.707C159.086 234.306 158.953 235.011 158.953 235.82C158.953 236.649 159.083 237.369 159.344 237.983C159.609 238.597 159.981 239.073 160.459 239.412C160.943 239.752 161.51 239.922 162.161 239.922C162.589 239.922 162.977 239.848 163.325 239.698C163.674 239.55 163.969 239.336 164.211 239.057C164.452 238.777 164.625 238.443 164.727 238.053H166.373C166.28 238.685 166.05 239.255 165.682 239.762C165.32 240.264 164.839 240.663 164.239 240.961C163.644 241.254 162.951 241.401 162.161 241.401ZM172.528 241.401C171.636 241.401 170.848 241.175 170.164 240.724C169.482 240.268 168.947 239.627 168.561 238.798C168.175 237.966 167.982 236.983 167.982 235.848C167.982 234.722 168.175 233.746 168.561 232.919C168.947 232.09 169.483 231.452 170.171 231C170.86 230.55 171.654 230.324 172.556 230.324C173.253 230.324 173.804 230.44 174.209 230.672C174.618 230.901 174.93 231.161 175.143 231.454C175.362 231.742 175.531 231.98 175.652 232.165H175.792V226.893H177.437V241.177H175.848V239.531H175.652C175.531 239.726 175.359 239.973 175.136 240.27C174.914 240.564 174.594 240.826 174.181 241.058C173.767 241.287 173.216 241.401 172.528 241.401ZM172.751 239.922C173.411 239.922 173.97 239.75 174.425 239.406C174.88 239.057 175.227 238.576 175.465 237.962C175.701 237.343 175.819 236.629 175.819 235.82C175.819 235.021 175.704 234.321 175.471 233.721C175.239 233.117 174.895 232.647 174.439 232.311C173.983 231.973 173.421 231.803 172.751 231.803C172.054 231.803 171.474 231.981 171.008 232.34C170.548 232.693 170.202 233.174 169.969 233.783C169.742 234.389 169.628 235.067 169.628 235.82C169.628 236.584 169.744 237.276 169.976 237.9C170.213 238.517 170.562 239.011 171.022 239.378C171.487 239.741 172.064 239.922 172.751 239.922ZM180.386 245.195V230.464H181.975V232.165H182.17C182.292 231.98 182.459 231.742 182.672 231.454C182.891 231.161 183.203 230.901 183.608 230.672C184.016 230.44 184.57 230.324 185.267 230.324C186.169 230.324 186.963 230.55 187.651 231C188.34 231.452 188.876 232.09 189.262 232.919C189.648 233.746 189.841 234.722 189.841 235.848C189.841 236.983 189.648 237.966 189.262 238.798C188.876 239.627 188.341 240.268 187.659 240.724C186.975 241.175 186.187 241.401 185.295 241.401C184.607 241.401 184.056 241.287 183.642 241.058C183.228 240.826 182.909 240.564 182.687 240.27C182.464 239.973 182.292 239.726 182.17 239.531H182.031V245.195H180.386ZM182.004 235.82C182.004 236.629 182.121 237.343 182.358 237.962C182.596 238.576 182.942 239.057 183.398 239.406C183.853 239.75 184.411 239.922 185.072 239.922C185.759 239.922 186.333 239.741 186.794 239.378C187.259 239.011 187.607 238.517 187.839 237.9C188.077 237.276 188.195 236.584 188.195 235.82C188.195 235.067 188.079 234.389 187.847 233.783C187.618 233.174 187.272 232.693 186.807 232.34C186.347 231.981 185.769 231.803 185.072 231.803C184.402 231.803 183.84 231.973 183.384 232.311C182.928 232.647 182.584 233.117 182.352 233.721C182.119 234.321 182.004 235.021 182.004 235.82ZM199.712 241.177L196.449 230.464H198.178L200.492 238.667H200.604L202.892 230.464H204.649L206.907 238.639H207.019L209.335 230.464H211.064L207.801 241.177H206.183L203.839 232.946H203.672L201.329 241.177H199.712ZM217.072 241.401C216.039 241.401 215.148 241.172 214.401 240.717C213.657 240.257 213.083 239.615 212.678 238.792C212.278 237.965 212.079 237.001 212.079 235.905C212.079 234.807 212.278 233.84 212.678 233.003C213.083 232.16 213.645 231.505 214.365 231.036C215.091 230.561 215.936 230.324 216.903 230.324C217.462 230.324 218.013 230.417 218.557 230.603C219.1 230.789 219.596 231.091 220.042 231.51C220.488 231.923 220.844 232.472 221.109 233.156C221.373 233.84 221.506 234.681 221.506 235.681V236.379H213.25V234.956H219.833C219.833 234.35 219.711 233.812 219.47 233.338C219.233 232.863 218.894 232.488 218.452 232.214C218.015 231.939 217.499 231.803 216.903 231.803C216.248 231.803 215.681 231.965 215.202 232.291C214.729 232.612 214.363 233.031 214.108 233.546C213.852 234.063 213.724 234.616 213.724 235.206V236.155C213.724 236.964 213.864 237.65 214.142 238.213C214.426 238.771 214.82 239.196 215.322 239.489C215.823 239.778 216.406 239.922 217.072 239.922C217.504 239.922 217.894 239.861 218.242 239.741C218.596 239.615 218.9 239.429 219.157 239.182C219.412 238.931 219.61 238.62 219.75 238.248L221.339 238.694C221.172 239.234 220.89 239.708 220.496 240.117C220.101 240.522 219.612 240.837 219.03 241.066C218.45 241.289 217.797 241.401 217.072 241.401ZM223.938 241.177V226.893H225.584V232.165H225.724C225.844 231.98 226.011 231.742 226.226 231.454C226.444 231.161 226.755 230.901 227.16 230.672C227.568 230.44 228.122 230.324 228.819 230.324C229.721 230.324 230.516 230.55 231.204 231C231.892 231.452 232.43 232.09 232.815 232.919C233.2 233.746 233.394 234.722 233.394 235.848C233.394 236.983 233.2 237.966 232.815 238.798C232.43 239.627 231.895 240.268 231.211 240.724C230.527 241.175 229.74 241.401 228.847 241.401C228.159 241.401 227.608 241.287 227.194 241.058C226.781 240.826 226.463 240.564 226.239 240.27C226.016 239.973 225.844 239.726 225.724 239.531H225.528V241.177H223.938ZM225.556 235.82C225.556 236.629 225.675 237.343 225.912 237.962C226.149 238.576 226.495 239.057 226.951 239.406C227.406 239.75 227.964 239.922 228.624 239.922C229.312 239.922 229.887 239.741 230.347 239.378C230.811 239.011 231.159 238.517 231.393 237.9C231.63 237.276 231.749 236.584 231.749 235.82C231.749 235.067 231.632 234.389 231.4 233.783C231.172 233.174 230.826 232.693 230.361 232.34C229.9 231.981 229.321 231.803 228.624 231.803C227.955 231.803 227.392 231.973 226.936 232.311C226.481 232.647 226.137 233.117 225.904 233.721C225.672 234.321 225.556 235.021 225.556 235.82ZM243.203 232.863L241.725 233.281C241.632 233.034 241.494 232.795 241.314 232.563C241.137 232.326 240.895 232.131 240.589 231.977C240.282 231.824 239.889 231.747 239.41 231.747C238.754 231.747 238.208 231.898 237.771 232.201C237.339 232.498 237.123 232.877 237.123 233.338C237.123 233.746 237.271 234.069 237.57 234.306C237.867 234.544 238.332 234.742 238.964 234.899L240.553 235.291C241.512 235.523 242.225 235.879 242.695 236.358C243.163 236.832 243.399 237.443 243.399 238.192C243.399 238.806 243.222 239.354 242.869 239.838C242.52 240.322 242.032 240.704 241.405 240.982C240.776 241.261 240.046 241.401 239.214 241.401C238.122 241.401 237.219 241.164 236.502 240.689C235.786 240.215 235.333 239.523 235.142 238.61L236.704 238.22C236.853 238.797 237.134 239.229 237.549 239.518C237.966 239.806 238.512 239.95 239.187 239.95C239.954 239.95 240.563 239.786 241.013 239.461C241.47 239.131 241.697 238.736 241.697 238.275C241.697 237.903 241.567 237.593 241.307 237.341C241.046 237.086 240.646 236.894 240.108 236.769L238.322 236.35C237.341 236.118 236.621 235.757 236.161 235.27C235.705 234.776 235.477 234.16 235.477 233.421C235.477 232.816 235.646 232.282 235.986 231.817C236.33 231.351 236.798 230.987 237.388 230.722C237.983 230.456 238.657 230.324 239.41 230.324C240.47 230.324 241.302 230.556 241.907 231.021C242.515 231.486 242.947 232.1 243.203 232.863ZM249.932 241.401C248.966 241.401 248.117 241.17 247.388 240.71C246.662 240.249 246.095 239.606 245.685 238.777C245.282 237.95 245.079 236.983 245.079 235.876C245.079 234.761 245.282 233.786 245.685 232.953C246.095 232.121 246.662 231.475 247.388 231.015C248.117 230.555 248.966 230.324 249.932 230.324C250.899 230.324 251.746 230.555 252.471 231.015C253.2 231.475 253.767 232.121 254.172 232.953C254.581 233.786 254.786 234.761 254.786 235.876C254.786 236.983 254.581 237.95 254.172 238.777C253.767 239.606 253.2 240.249 252.471 240.71C251.746 241.17 250.899 241.401 249.932 241.401ZM249.932 239.922C250.667 239.922 251.271 239.734 251.746 239.357C252.219 238.98 252.57 238.485 252.799 237.871C253.026 237.258 253.14 236.592 253.14 235.876C253.14 235.16 253.026 234.493 252.799 233.874C252.57 233.255 252.219 232.756 251.746 232.375C251.271 231.993 250.667 231.803 249.932 231.803C249.198 231.803 248.594 231.993 248.119 232.375C247.645 232.756 247.294 233.255 247.066 233.874C246.839 234.493 246.725 235.16 246.725 235.876C246.725 236.592 246.839 237.258 247.066 237.871C247.294 238.485 247.645 238.98 248.119 239.357C248.594 239.734 249.198 239.922 249.932 239.922ZM261.354 241.401C260.35 241.401 259.486 241.164 258.761 240.689C258.036 240.215 257.477 239.562 257.087 238.729C256.697 237.897 256.501 236.946 256.501 235.876C256.501 234.788 256.701 233.828 257.1 232.995C257.505 232.158 258.067 231.505 258.788 231.036C259.513 230.561 260.36 230.324 261.327 230.324C262.079 230.324 262.758 230.464 263.363 230.742C263.967 231.021 264.463 231.412 264.848 231.915C265.233 232.417 265.473 233.003 265.566 233.672H263.92C263.795 233.184 263.517 232.751 263.083 232.375C262.656 231.993 262.079 231.803 261.354 231.803C260.713 231.803 260.15 231.97 259.667 232.305C259.188 232.635 258.814 233.102 258.545 233.707C258.28 234.306 258.147 235.011 258.147 235.82C258.147 236.649 258.277 237.369 258.537 237.983C258.803 238.597 259.174 239.073 259.653 239.412C260.137 239.752 260.704 239.922 261.354 239.922C261.782 239.922 262.17 239.848 262.519 239.698C262.867 239.55 263.163 239.336 263.405 239.057C263.647 238.777 263.818 238.443 263.92 238.053H265.566C265.473 238.685 265.243 239.255 264.876 239.762C264.513 240.264 264.032 240.663 263.433 240.961C262.838 241.254 262.144 241.401 261.354 241.401ZM269.211 237.271L269.184 235.234H269.518L274.205 230.464H276.241L271.247 235.513H271.108L269.211 237.271ZM267.677 241.177V226.893H269.323V241.177H267.677ZM274.483 241.177L270.3 235.876L271.47 234.732L276.575 241.177H274.483ZM282.113 241.401C281.081 241.401 280.191 241.172 279.443 240.717C278.699 240.257 278.125 239.615 277.721 238.792C277.321 237.965 277.121 237.001 277.121 235.905C277.121 234.807 277.321 233.84 277.721 233.003C278.125 232.16 278.688 231.505 279.408 231.036C280.134 230.561 280.979 230.324 281.946 230.324C282.504 230.324 283.055 230.417 283.598 230.603C284.143 230.789 284.638 231.091 285.085 231.51C285.53 231.923 285.886 232.472 286.151 233.156C286.416 233.84 286.549 234.681 286.549 235.681V236.379H278.293V234.956H284.875C284.875 234.35 284.754 233.812 284.513 233.338C284.276 232.863 283.936 232.488 283.494 232.214C283.057 231.939 282.542 231.803 281.946 231.803C281.291 231.803 280.724 231.965 280.245 232.291C279.771 232.612 279.406 233.031 279.15 233.546C278.894 234.063 278.767 234.616 278.767 235.206V236.155C278.767 236.964 278.907 237.65 279.185 238.213C279.469 238.771 279.861 239.196 280.363 239.489C280.865 239.778 281.449 239.922 282.113 239.922C282.547 239.922 282.937 239.861 283.285 239.741C283.639 239.615 283.943 239.429 284.199 239.182C284.454 238.931 284.651 238.62 284.791 238.248L286.382 238.694C286.214 239.234 285.933 239.708 285.537 240.117C285.142 240.522 284.654 240.837 284.073 241.066C283.492 241.289 282.839 241.401 282.113 241.401ZM293.415 230.464V231.858H287.864V230.464H293.415ZM289.483 227.897H291.128V238.108C291.128 238.574 291.195 238.922 291.33 239.154C291.47 239.383 291.647 239.536 291.86 239.615C292.079 239.689 292.31 239.726 292.551 239.726C292.732 239.726 292.88 239.718 292.997 239.698C293.113 239.676 293.207 239.656 293.275 239.643L293.61 241.122C293.499 241.164 293.343 241.206 293.144 241.247C292.944 241.294 292.69 241.317 292.383 241.317C291.918 241.317 291.463 241.217 291.017 241.017C290.575 240.816 290.207 240.512 289.915 240.103C289.627 239.694 289.483 239.178 289.483 238.555V227.897ZM307.574 236.797V230.464H309.22V241.177H307.574V239.364H307.463C307.212 239.908 306.822 240.371 306.292 240.751C305.762 241.128 305.092 241.317 304.283 241.317C303.614 241.317 303.019 241.17 302.498 240.878C301.978 240.58 301.568 240.134 301.271 239.538C300.973 238.938 300.824 238.183 300.824 237.271V230.464H302.47V237.159C302.47 237.941 302.689 238.564 303.126 239.029C303.567 239.494 304.129 239.726 304.813 239.726C305.222 239.726 305.638 239.622 306.061 239.412C306.489 239.203 306.847 238.883 307.135 238.45C307.428 238.017 307.574 237.466 307.574 236.797ZM311.94 241.177V230.464H313.529V232.082H313.641C313.836 231.551 314.189 231.122 314.701 230.792C315.213 230.461 315.789 230.296 316.43 230.296C316.552 230.296 316.703 230.298 316.883 230.303C317.065 230.308 317.202 230.315 317.296 230.324V231.998C317.239 231.984 317.112 231.963 316.912 231.936C316.716 231.903 316.51 231.887 316.29 231.887C315.77 231.887 315.305 231.996 314.896 232.214C314.493 232.428 314.171 232.726 313.934 233.107C313.702 233.484 313.586 233.913 313.586 234.397V241.177H311.94ZM320.597 226.893V241.177H318.951V226.893H320.597Z" fill="#81B300"/>
<mask id="mask3_1591_576" style="mask-type:alpha" maskUnits="userSpaceOnUse" x="334" y="222" width="25" height="25">
<path d="M358.248 222.764H334.93V246.089H358.248V222.764Z" fill="#D9D9D9"/>
</mask>
<g mask="url(#mask3_1591_576)">
<path d="M343.732 239.771C343.295 239.771 342.925 239.62 342.624 239.318C342.322 239.016 342.171 238.647 342.171 238.208V227.145C342.171 226.707 342.322 226.337 342.624 226.035C342.925 225.733 343.295 225.582 343.732 225.582H352.461C352.898 225.582 353.269 225.733 353.571 226.035C353.873 226.337 354.024 226.707 354.024 227.145V238.208C354.024 238.647 353.873 239.016 353.571 239.318C353.269 239.62 352.898 239.771 352.461 239.771H343.732ZM343.732 238.508H352.461C352.536 238.508 352.605 238.477 352.666 238.415C352.729 238.352 352.761 238.283 352.761 238.208V227.145C352.761 227.07 352.729 227.001 352.666 226.939C352.605 226.876 352.536 226.845 352.461 226.845H343.732C343.657 226.845 343.589 226.876 343.527 226.939C343.464 227.001 343.434 227.07 343.434 227.145V238.208C343.434 238.283 343.464 238.352 343.527 238.415C343.589 238.477 343.657 238.508 343.732 238.508ZM340.72 242.784C340.283 242.784 339.914 242.633 339.611 242.331C339.309 242.029 339.158 241.659 339.158 241.222V228.894H340.422V241.222C340.422 241.297 340.452 241.365 340.515 241.427C340.576 241.49 340.645 241.52 340.72 241.52H350.712V242.784H340.72Z" fill="#81B300"/>
</g>
<path d="M61.9546 322.203V312.829H63.3457V314.293H63.4677C63.663 313.792 63.9782 313.404 64.4134 313.127C64.8487 312.847 65.3714 312.706 65.9815 312.706C66.5998 312.706 67.1144 312.847 67.5252 313.127C67.9401 313.404 68.2635 313.792 68.4953 314.293H68.593C68.833 313.808 69.1929 313.424 69.6729 313.139C70.1529 312.851 70.7285 312.706 71.3997 312.706C72.2377 312.706 72.923 312.969 73.4559 313.494C73.9887 314.015 74.2552 314.826 74.2552 315.929V322.203H72.8152V315.929C72.8152 315.237 72.6261 314.743 72.2477 314.446C71.8695 314.148 71.4241 314 70.9116 314C70.2525 314 69.7421 314.2 69.3801 314.598C69.018 314.993 68.837 315.494 68.837 316.099V322.203H67.3726V315.782C67.3726 315.25 67.1998 314.82 66.8541 314.495C66.5083 314.164 66.0629 314 65.5179 314C65.1435 314 64.7938 314.099 64.4684 314.299C64.147 314.498 63.8867 314.776 63.6874 315.129C63.4921 315.479 63.3945 315.884 63.3945 316.343V322.203H61.9546ZM80.6953 322.398C79.8492 322.398 79.1068 322.197 78.4683 321.794C77.8337 321.391 77.3375 320.828 76.9795 320.104C76.6257 319.379 76.4487 318.532 76.4487 317.565C76.4487 316.588 76.6257 315.736 76.9795 315.007C77.3375 314.279 77.8337 313.714 78.4683 313.31C79.1068 312.907 79.8492 312.706 80.6953 312.706C81.5414 312.706 82.2817 312.907 82.9163 313.31C83.5548 313.714 84.0511 314.279 84.405 315.007C84.763 315.736 84.9419 316.588 84.9419 317.565C84.9419 318.532 84.763 319.379 84.405 320.104C84.0511 320.828 83.5548 321.391 82.9163 321.794C82.2817 322.197 81.5414 322.398 80.6953 322.398ZM80.6953 321.104C81.338 321.104 81.8668 320.94 82.2817 320.609C82.6966 320.28 83.0037 319.847 83.203 319.309C83.4023 318.773 83.5019 318.191 83.5019 317.565C83.5019 316.938 83.4023 316.354 83.203 315.813C83.0037 315.272 82.6966 314.835 82.2817 314.501C81.8668 314.167 81.338 314 80.6953 314C80.0526 314 79.5239 314.167 79.1089 314.501C78.694 314.835 78.3869 315.272 78.1876 315.813C77.9883 316.354 77.8886 316.938 77.8886 317.565C77.8886 318.191 77.9883 318.773 78.1876 319.309C78.3869 319.847 78.694 320.28 79.1089 320.609C79.5239 320.94 80.0526 321.104 80.6953 321.104ZM90.6789 322.398C89.8979 322.398 89.2084 322.201 88.6105 321.806C88.0125 321.407 87.5447 320.846 87.2071 320.122C86.8695 319.393 86.7007 318.532 86.7007 317.54C86.7007 316.556 86.8695 315.701 87.2071 314.977C87.5447 314.253 88.0145 313.693 88.6166 313.298C89.2186 312.904 89.9142 312.706 90.7033 312.706C91.3134 312.706 91.7955 312.808 92.1493 313.012C92.5073 313.21 92.7799 313.439 92.9669 313.695C93.1581 313.947 93.3066 314.155 93.4123 314.318H93.5344V309.703H94.9744V322.203H93.5831V320.763H93.4123C93.3066 320.934 93.156 321.15 92.9608 321.41C92.7656 321.665 92.4869 321.896 92.1249 322.099C91.763 322.299 91.2809 322.398 90.6789 322.398ZM90.8742 321.104C91.4517 321.104 91.9398 320.953 92.3384 320.652C92.7372 320.348 93.0402 319.927 93.2476 319.389C93.455 318.848 93.5588 318.224 93.5588 317.516C93.5588 316.816 93.4571 316.203 93.2537 315.678C93.0504 315.149 92.7493 314.739 92.3507 314.446C91.9521 314.148 91.4598 314 90.8742 314C90.264 314 89.7555 314.157 89.3488 314.47C88.946 314.779 88.643 315.2 88.4396 315.733C88.2403 316.262 88.1407 316.857 88.1407 317.516C88.1407 318.182 88.2423 318.789 88.4458 319.334C88.6532 319.875 88.9583 320.306 89.3609 320.628C89.7677 320.946 90.2721 321.104 90.8742 321.104ZM101.741 322.398C100.838 322.398 100.059 322.199 99.404 321.8C98.7531 321.398 98.2508 320.835 97.897 320.116C97.5471 319.392 97.3722 318.549 97.3722 317.588C97.3722 316.628 97.5471 315.782 97.897 315.05C98.2508 314.313 98.7431 313.74 99.3735 313.328C100.008 312.913 100.748 312.706 101.594 312.706C102.083 312.706 102.565 312.787 103.04 312.95C103.516 313.114 103.95 313.377 104.34 313.743C104.731 314.105 105.042 314.585 105.274 315.185C105.505 315.782 105.621 316.519 105.621 317.393V318.004H98.3972V316.758H104.157C104.157 316.229 104.051 315.758 103.84 315.343C103.632 314.928 103.335 314.6 102.949 314.361C102.567 314.12 102.115 314 101.594 314C101.021 314 100.525 314.142 100.106 314.427C99.6908 314.708 99.3714 315.074 99.1477 315.526C98.924 315.978 98.8122 316.461 98.8122 316.978V317.808C98.8122 318.516 98.9342 319.117 99.1783 319.609C99.4264 320.098 99.77 320.47 100.209 320.726C100.649 320.978 101.159 321.104 101.741 321.104C102.119 321.104 102.461 321.051 102.766 320.946C103.075 320.835 103.342 320.673 103.565 320.457C103.789 320.238 103.962 319.965 104.084 319.64L105.475 320.03C105.329 320.503 105.082 320.918 104.737 321.275C104.391 321.63 103.964 321.906 103.455 322.105C102.947 322.301 102.375 322.398 101.741 322.398Z" fill="#81B300"/>
<path d="M131.818 300.719H203C205.373 300.719 207.296 302.642 207.296 305.015V327.113C207.296 329.486 205.373 331.41 203 331.41H131.818C129.446 331.41 127.523 329.486 127.523 327.113V305.015C127.523 302.642 129.446 300.719 131.818 300.719Z" stroke="#81B300" stroke-width="0.887036"/>
<path d="M139.485 316.563V322.203H138.045V309.703H139.485V314.293H139.607C139.827 313.808 140.156 313.424 140.595 313.139C141.039 312.85 141.628 312.706 142.365 312.706C143.003 312.706 143.563 312.834 144.043 313.09C144.523 313.343 144.895 313.731 145.159 314.256C145.428 314.777 145.562 315.44 145.562 316.246V322.203H144.122V316.343C144.122 315.599 143.929 315.023 143.542 314.616C143.16 314.206 142.629 313.999 141.95 313.999C141.478 313.999 141.055 314.099 140.681 314.299C140.311 314.498 140.018 314.789 139.802 315.172C139.591 315.554 139.485 316.018 139.485 316.563ZM152.126 322.398C151.223 322.398 150.444 322.199 149.789 321.8C149.138 321.397 148.636 320.835 148.282 320.116C147.932 319.391 147.757 318.549 147.757 317.588C147.757 316.628 147.932 315.782 148.282 315.049C148.636 314.313 149.128 313.739 149.758 313.328C150.393 312.913 151.133 312.706 151.979 312.706C152.467 312.706 152.949 312.787 153.425 312.95C153.901 313.113 154.334 313.377 154.725 313.743C155.115 314.105 155.427 314.585 155.658 315.184C155.89 315.782 156.006 316.519 156.006 317.393V318.004H148.782V316.758H154.542C154.542 316.229 154.436 315.757 154.225 315.343C154.017 314.928 153.72 314.6 153.334 314.36C152.951 314.12 152.5 313.999 151.979 313.999C151.406 313.999 150.909 314.142 150.49 314.427C150.076 314.708 149.756 315.074 149.532 315.525C149.309 315.977 149.197 316.461 149.197 316.978V317.808C149.197 318.516 149.319 319.116 149.563 319.609C149.811 320.097 150.155 320.469 150.594 320.726C151.033 320.977 151.544 321.104 152.126 321.104C152.504 321.104 152.846 321.051 153.151 320.945C153.46 320.835 153.726 320.673 153.95 320.457C154.174 320.237 154.347 319.965 154.469 319.639L155.86 320.03C155.713 320.502 155.467 320.917 155.121 321.274C154.776 321.629 154.349 321.905 153.84 322.104C153.332 322.301 152.76 322.398 152.126 322.398ZM160.954 322.422C160.361 322.422 159.822 322.311 159.338 322.087C158.854 321.859 158.469 321.531 158.184 321.104C157.9 320.673 157.757 320.152 157.757 319.541C157.757 319.005 157.863 318.569 158.075 318.235C158.286 317.897 158.569 317.633 158.923 317.442C159.277 317.25 159.667 317.108 160.094 317.015C160.525 316.918 160.959 316.84 161.394 316.783C161.963 316.71 162.425 316.655 162.779 316.618C163.137 316.578 163.397 316.51 163.56 316.417C163.727 316.323 163.81 316.16 163.81 315.928V315.879C163.81 315.277 163.645 314.81 163.316 314.476C162.99 314.142 162.496 313.975 161.833 313.975C161.146 313.975 160.607 314.126 160.216 314.427C159.826 314.727 159.551 315.049 159.392 315.392L158.026 314.903C158.27 314.333 158.595 313.89 159.002 313.572C159.413 313.251 159.86 313.027 160.344 312.901C160.832 312.771 161.312 312.706 161.784 312.706C162.085 312.706 162.431 312.742 162.822 312.816C163.216 312.885 163.596 313.03 163.963 313.249C164.333 313.469 164.64 313.801 164.884 314.244C165.129 314.687 165.25 315.281 165.25 316.026V322.203H163.81V320.933H163.737C163.639 321.137 163.476 321.354 163.249 321.586C163.021 321.818 162.718 322.016 162.34 322.178C161.961 322.341 161.5 322.422 160.954 322.422ZM161.174 321.128C161.744 321.128 162.224 321.017 162.614 320.793C163.009 320.569 163.306 320.28 163.505 319.927C163.708 319.572 163.81 319.2 163.81 318.809V317.491C163.749 317.565 163.615 317.631 163.407 317.692C163.204 317.749 162.968 317.8 162.699 317.844C162.435 317.885 162.177 317.922 161.925 317.955C161.676 317.983 161.475 318.008 161.321 318.027C160.946 318.076 160.597 318.156 160.271 318.266C159.95 318.371 159.689 318.532 159.49 318.748C159.295 318.959 159.197 319.249 159.197 319.615C159.197 320.116 159.382 320.494 159.752 320.75C160.127 321.002 160.601 321.128 161.174 321.128ZM171.417 322.398C170.637 322.398 169.947 322.2 169.349 321.806C168.75 321.407 168.283 320.846 167.945 320.122C167.608 319.393 167.439 318.532 167.439 317.54C167.439 316.555 167.608 315.701 167.945 314.977C168.283 314.252 168.753 313.693 169.355 313.297C169.957 312.903 170.652 312.706 171.442 312.706C172.052 312.706 172.534 312.807 172.887 313.011C173.246 313.21 173.518 313.438 173.705 313.695C173.896 313.947 174.045 314.154 174.15 314.317H174.273V309.703H175.713V322.203H174.321V320.763H174.15C174.045 320.933 173.894 321.149 173.699 321.41C173.503 321.665 173.225 321.896 172.863 322.098C172.501 322.298 172.02 322.398 171.417 322.398ZM171.612 321.104C172.19 321.104 172.677 320.953 173.076 320.652C173.475 320.348 173.778 319.927 173.986 319.389C174.193 318.847 174.297 318.224 174.297 317.515C174.297 316.816 174.196 316.203 173.992 315.678C173.788 315.149 173.487 314.739 173.089 314.445C172.69 314.148 172.198 313.999 171.612 313.999C171.002 313.999 170.494 314.157 170.087 314.47C169.684 314.779 169.381 315.2 169.177 315.733C168.978 316.262 168.879 316.856 168.879 317.515C168.879 318.182 168.981 318.789 169.183 319.334C169.391 319.875 169.696 320.306 170.099 320.628C170.506 320.945 171.011 321.104 171.612 321.104ZM182.723 312.828V314.049H177.671V312.828H182.723ZM179.184 322.203V311.534C179.184 310.997 179.311 310.55 179.562 310.191C179.815 309.833 180.142 309.564 180.544 309.386C180.948 309.207 181.373 309.117 181.821 309.117C182.174 309.117 182.462 309.145 182.687 309.203C182.91 309.26 183.077 309.312 183.187 309.361L182.772 310.606C182.698 310.582 182.597 310.551 182.467 310.514C182.341 310.479 182.174 310.46 181.967 310.46C181.491 310.46 181.147 310.579 180.936 310.82C180.728 311.061 180.624 311.412 180.624 311.876V322.203H179.184ZM190.647 318.37V312.828H192.087V322.203H190.647V320.615H190.55C190.331 321.092 189.988 321.497 189.524 321.831C189.062 322.16 188.475 322.324 187.768 322.324C187.181 322.324 186.661 322.196 186.206 321.94C185.75 321.68 185.392 321.289 185.132 320.769C184.872 320.243 184.742 319.583 184.742 318.785V312.828H186.181V318.687C186.181 319.37 186.373 319.915 186.754 320.323C187.141 320.729 187.633 320.933 188.231 320.933C188.589 320.933 188.954 320.841 189.323 320.658C189.697 320.475 190.01 320.194 190.263 319.816C190.52 319.438 190.647 318.955 190.647 318.37ZM196.165 309.703V322.203H194.724V309.703H196.165Z" fill="#81B300"/>
<path d="M247.374 325.913C246.678 325.913 246.08 325.824 245.581 325.644C245.08 325.469 244.663 325.238 244.329 324.948C244 324.664 243.737 324.359 243.542 324.032L244.69 323.227C244.82 323.398 244.984 323.594 245.183 323.813C245.383 324.037 245.655 324.23 246.002 324.393C246.351 324.56 246.809 324.644 247.374 324.644C248.131 324.644 248.754 324.46 249.248 324.094C249.74 323.728 249.985 323.155 249.985 322.373V320.469H249.864C249.757 320.639 249.607 320.852 249.412 321.103C249.221 321.351 248.945 321.574 248.583 321.769C248.224 321.96 247.741 322.056 247.129 322.056C246.373 322.056 245.694 321.877 245.092 321.518C244.494 321.161 244.021 320.639 243.67 319.956C243.325 319.273 243.152 318.442 243.152 317.466C243.152 316.506 243.32 315.67 243.659 314.958C243.996 314.241 244.465 313.688 245.068 313.297C245.67 312.903 246.365 312.705 247.154 312.705C247.764 312.705 248.249 312.807 248.607 313.011C248.968 313.21 249.245 313.438 249.437 313.695C249.632 313.946 249.782 314.154 249.888 314.317H250.034V312.828H251.425V322.471C251.425 323.276 251.242 323.932 250.876 324.436C250.514 324.945 250.026 325.317 249.412 325.552C248.802 325.793 248.122 325.913 247.374 325.913ZM247.325 320.762C247.903 320.762 248.391 320.629 248.79 320.366C249.188 320.1 249.491 319.72 249.698 319.224C249.906 318.728 250.01 318.134 250.01 317.441C250.01 316.766 249.908 316.169 249.704 315.653C249.502 315.137 249.2 314.732 248.802 314.438C248.403 314.145 247.911 313.999 247.325 313.999C246.715 313.999 246.207 314.154 245.8 314.463C245.397 314.772 245.095 315.187 244.891 315.708C244.691 316.228 244.591 316.807 244.591 317.441C244.591 318.092 244.693 318.668 244.897 319.169C245.104 319.665 245.409 320.056 245.813 320.341C246.219 320.621 246.723 320.762 247.325 320.762ZM254.061 325.718V312.828H255.453V314.317H255.623C255.729 314.154 255.875 313.946 256.063 313.695C256.254 313.438 256.527 313.21 256.88 313.011C257.238 312.807 257.722 312.705 258.332 312.705C259.121 312.705 259.817 312.903 260.42 313.297C261.021 313.692 261.491 314.252 261.828 314.976C262.166 315.701 262.335 316.555 262.335 317.54C262.335 318.531 262.166 319.392 261.828 320.121C261.491 320.846 261.023 321.407 260.424 321.806C259.827 322.2 259.137 322.397 258.357 322.397C257.755 322.397 257.273 322.298 256.911 322.098C256.549 321.895 256.27 321.664 256.075 321.409C255.88 321.149 255.729 320.933 255.623 320.762H255.501V325.718H254.061ZM255.477 317.515C255.477 318.223 255.58 318.847 255.788 319.388C255.995 319.926 256.298 320.347 256.697 320.652C257.096 320.952 257.583 321.103 258.161 321.103C258.764 321.103 259.266 320.945 259.668 320.627C260.075 320.305 260.38 319.874 260.584 319.333C260.791 318.788 260.895 318.182 260.895 317.515C260.895 316.856 260.793 316.262 260.59 315.732C260.39 315.2 260.087 314.779 259.681 314.469C259.278 314.156 258.771 313.999 258.161 313.999C257.576 313.999 257.084 314.148 256.685 314.445C256.286 314.738 255.985 315.148 255.782 315.677C255.578 316.203 255.477 316.815 255.477 317.515ZM270.438 318.369V312.828H271.877V322.202H270.438V320.615H270.34C270.12 321.091 269.779 321.496 269.315 321.83C268.851 322.159 268.266 322.324 267.557 322.324C266.972 322.324 266.452 322.196 265.996 321.939C265.54 321.679 265.183 321.289 264.922 320.768C264.661 320.243 264.531 319.582 264.531 318.784V312.828H265.972V318.686C265.972 319.37 266.162 319.915 266.545 320.323C266.931 320.729 267.424 320.933 268.021 320.933C268.38 320.933 268.743 320.841 269.114 320.658C269.488 320.475 269.801 320.194 270.054 319.816C270.309 319.437 270.438 318.955 270.438 318.369Z" fill="#81B300"/>
<path d="M298.728 300.719H374.818C377.191 300.719 379.114 302.642 379.114 305.015V327.113C379.114 329.486 377.191 331.41 374.818 331.41H298.728C296.355 331.41 294.432 329.486 294.432 327.113V305.015C294.432 302.642 296.355 300.719 298.728 300.719Z" stroke="#81B300" stroke-width="0.887036"/>
<path d="M308.884 322.398C307.98 322.398 307.201 322.199 306.546 321.8C305.895 321.398 305.393 320.835 305.039 320.116C304.689 319.392 304.515 318.549 304.515 317.588C304.515 316.628 304.689 315.782 305.039 315.05C305.393 314.313 305.886 313.74 306.516 313.328C307.151 312.913 307.891 312.706 308.736 312.706C309.225 312.706 309.707 312.787 310.183 312.95C310.658 313.114 311.092 313.377 311.482 313.743C311.873 314.105 312.184 314.585 312.416 315.185C312.648 315.782 312.764 316.519 312.764 317.393V318.004H305.539V316.758H311.299C311.299 316.229 311.193 315.758 310.982 315.343C310.775 314.928 310.478 314.6 310.091 314.361C309.708 314.12 309.257 314 308.736 314C308.163 314 307.667 314.142 307.248 314.427C306.833 314.708 306.514 315.074 306.291 315.526C306.066 315.978 305.954 316.461 305.954 316.978V317.808C305.954 318.516 306.077 319.117 306.321 319.609C306.569 320.098 306.913 320.47 307.352 320.726C307.791 320.978 308.302 321.104 308.884 321.104C309.262 321.104 309.603 321.051 309.908 320.946C310.218 320.835 310.484 320.673 310.707 320.457C310.931 320.238 311.104 319.965 311.227 319.64L312.617 320.03C312.471 320.503 312.224 320.918 311.88 321.275C311.533 321.63 311.106 321.906 310.598 322.105C310.089 322.301 309.518 322.398 308.884 322.398ZM316.395 316.563V322.203H314.954V312.829H316.346V314.293H316.467C316.687 313.817 317.021 313.434 317.469 313.145C317.915 312.853 318.493 312.706 319.201 312.706C319.836 312.706 320.391 312.836 320.867 313.096C321.343 313.353 321.712 313.743 321.978 314.269C322.241 314.789 322.374 315.448 322.374 316.246V322.203H320.933V316.343C320.933 315.607 320.743 315.034 320.36 314.622C319.978 314.207 319.453 314 318.785 314C318.326 314 317.915 314.099 317.553 314.299C317.196 314.498 316.913 314.789 316.705 315.172C316.498 315.554 316.395 316.018 316.395 316.563ZM327.763 322.423C327.169 322.423 326.63 322.311 326.145 322.088C325.662 321.859 325.278 321.531 324.993 321.104C324.708 320.673 324.566 320.153 324.566 319.541C324.566 319.005 324.671 318.569 324.882 318.235C325.095 317.898 325.377 317.634 325.731 317.442C326.085 317.251 326.475 317.108 326.903 317.015C327.333 316.918 327.767 316.841 328.202 316.783C328.772 316.711 329.233 316.655 329.587 316.618C329.945 316.578 330.205 316.51 330.368 316.417C330.535 316.324 330.619 316.161 330.619 315.929V315.879C330.619 315.278 330.453 314.81 330.124 314.476C329.799 314.142 329.304 313.975 328.642 313.975C327.954 313.975 327.416 314.126 327.024 314.427C326.634 314.728 326.359 315.049 326.201 315.392L324.835 314.903C325.078 314.334 325.404 313.891 325.81 313.573C326.221 313.251 326.668 313.028 327.153 312.901C327.64 312.771 328.121 312.706 328.593 312.706C328.893 312.706 329.239 312.743 329.63 312.816C330.025 312.885 330.405 313.03 330.771 313.25C331.142 313.47 331.448 313.801 331.693 314.244C331.936 314.687 332.058 315.282 332.058 316.027V322.203H330.619V320.934H330.545C330.447 321.137 330.285 321.355 330.057 321.587C329.83 321.819 329.526 322.016 329.147 322.178C328.769 322.342 328.308 322.423 327.763 322.423ZM327.983 321.129C328.552 321.129 329.032 321.017 329.422 320.794C329.817 320.569 330.114 320.28 330.313 319.927C330.517 319.572 330.619 319.2 330.619 318.81V317.491C330.557 317.565 330.424 317.631 330.215 317.693C330.012 317.749 329.777 317.801 329.508 317.845C329.243 317.885 328.985 317.922 328.732 317.955C328.485 317.984 328.283 318.008 328.129 318.028C327.754 318.077 327.405 318.157 327.079 318.266C326.758 318.371 326.498 318.532 326.299 318.748C326.104 318.96 326.005 319.249 326.005 319.615C326.005 320.116 326.191 320.494 326.561 320.751C326.934 321.002 327.409 321.129 327.983 321.129ZM334.882 322.203V309.703H336.322V314.318H336.443C336.549 314.155 336.696 313.947 336.883 313.695C337.074 313.439 337.347 313.21 337.7 313.012C338.058 312.808 338.542 312.706 339.153 312.706C339.942 312.706 340.637 312.904 341.24 313.298C341.841 313.693 342.311 314.253 342.648 314.977C342.986 315.701 343.155 316.556 343.155 317.54C343.155 318.532 342.986 319.393 342.648 320.122C342.311 320.846 341.843 321.407 341.246 321.806C340.648 322.201 339.958 322.398 339.178 322.398C338.575 322.398 338.093 322.299 337.731 322.099C337.369 321.896 337.09 321.665 336.895 321.41C336.7 321.15 336.549 320.934 336.443 320.763H336.273V322.203H334.882ZM336.297 317.516C336.297 318.224 336.4 318.848 336.608 319.389C336.816 319.927 337.118 320.348 337.517 320.652C337.916 320.953 338.405 321.104 338.981 321.104C339.584 321.104 340.086 320.946 340.488 320.628C340.896 320.306 341.2 319.875 341.404 319.334C341.611 318.789 341.716 318.182 341.716 317.516C341.716 316.857 341.614 316.262 341.41 315.733C341.211 315.2 340.908 314.779 340.501 314.47C340.098 314.157 339.593 314 338.981 314C338.396 314 337.904 314.148 337.505 314.446C337.106 314.739 336.805 315.149 336.603 315.678C336.399 316.203 336.297 316.816 336.297 317.516ZM346.798 309.703V322.203H345.358V309.703H346.798ZM353.365 322.398C352.462 322.398 351.682 322.199 351.028 321.8C350.377 321.398 349.875 320.835 349.521 320.116C349.171 319.392 348.996 318.549 348.996 317.588C348.996 316.628 349.171 315.782 349.521 315.05C349.875 314.313 350.367 313.74 350.998 313.328C351.632 312.913 352.372 312.706 353.218 312.706C353.706 312.706 354.189 312.787 354.665 312.95C355.14 313.114 355.573 313.377 355.964 313.743C356.355 314.105 356.665 314.585 356.897 315.185C357.129 315.782 357.246 316.519 357.246 317.393V318.004H350.021V316.758H355.78C355.78 316.229 355.675 315.758 355.464 315.343C355.256 314.928 354.959 314.6 354.573 314.361C354.191 314.12 353.739 314 353.218 314C352.645 314 352.149 314.142 351.729 314.427C351.314 314.708 350.995 315.074 350.772 315.526C350.547 315.978 350.436 316.461 350.436 316.978V317.808C350.436 318.516 350.558 319.117 350.802 319.609C351.05 320.098 351.394 320.47 351.833 320.726C352.273 320.978 352.783 321.104 353.365 321.104C353.743 321.104 354.084 321.051 354.39 320.946C354.699 320.835 354.965 320.673 355.189 320.457C355.413 320.238 355.585 319.965 355.708 319.64L357.098 320.03C356.952 320.503 356.706 320.918 356.361 321.275C356.015 321.63 355.588 321.906 355.08 322.105C354.57 322.301 354 322.398 353.365 322.398ZM362.975 322.398C362.194 322.398 361.504 322.201 360.907 321.806C360.308 321.407 359.84 320.846 359.503 320.122C359.165 319.393 358.996 318.532 358.996 317.54C358.996 316.556 359.165 315.701 359.503 314.977C359.84 314.253 360.31 313.693 360.913 313.298C361.514 312.904 362.21 312.706 362.999 312.706C363.609 312.706 364.091 312.808 364.445 313.012C364.803 313.21 365.076 313.439 365.262 313.695C365.454 313.947 365.602 314.155 365.708 314.318H365.83V309.703H367.27V322.203H365.878V320.763H365.708C365.602 320.934 365.451 321.15 365.256 321.41C365.061 321.665 364.782 321.896 364.42 322.099C364.058 322.299 363.576 322.398 362.975 322.398ZM363.17 321.104C363.748 321.104 364.235 320.953 364.634 320.652C365.033 320.348 365.336 319.927 365.543 319.389C365.751 318.848 365.855 318.224 365.855 317.516C365.855 316.816 365.753 316.203 365.549 315.678C365.346 315.149 365.045 314.739 364.646 314.446C364.247 314.148 363.755 314 363.17 314C362.56 314 362.052 314.157 361.644 314.47C361.242 314.779 360.939 315.2 360.735 315.733C360.536 316.262 360.437 316.857 360.437 317.516C360.437 318.182 360.538 318.789 360.741 319.334C360.948 319.875 361.254 320.306 361.656 320.628C362.064 320.946 362.568 321.104 363.17 321.104Z" fill="#81B300"/>
</g>
<defs>
<clipPath id="clip0_1591_576">
<rect width="432" height="251.666" fill="white" transform="translate(41 100)"/>
</clipPath>
</defs>
</svg>
