<svg width="512" height="452" viewBox="0 0 512 452" fill="none" xmlns="http://www.w3.org/2000/svg">
<rect x="0.5" y="0.5" width="511" height="451" fill="#F2F0E7" stroke="#1C2024"/>
<g clip-path="url(#clip0_1591_577)">
<mask id="mask0_1591_577" style="mask-type:luminance" maskUnits="userSpaceOnUse" x="40" y="81" width="432" height="290">
<path d="M40 85.9091C40 83.1979 42.1979 81 44.9091 81H467.091C469.802 81 472 83.1979 472 85.9091V365.727C472 368.438 469.802 370.636 467.091 370.636H44.9091C42.1979 370.636 40 368.438 40 365.727V85.9091Z" fill="white"/>
</mask>
<g mask="url(#mask0_1591_577)">
<path d="M40 85.9091C40 83.1979 42.1979 81 44.9091 81H467.091C469.802 81 472 83.1979 472 85.9091V365.727C472 368.438 469.802 370.636 467.091 370.636H44.9091C42.1979 370.636 40 368.438 40 365.727V85.9091Z" fill="#1C2024"/>
<mask id="mask1_1591_577" style="mask-type:alpha" maskUnits="userSpaceOnUse" x="59" y="110" width="31" height="30">
<path d="M89.0913 110.455H59.6367V139.91H89.0913V110.455Z" fill="#D9D9D9"/>
</mask>
<g mask="url(#mask1_1591_577)">
<path d="M68.1314 125.796L75.24 132.905L74.3643 133.774L65.7734 125.183L74.3643 116.592L75.24 117.46L68.1314 124.569H82.9553V125.796H68.1314Z" fill="#F2F0E7"/>
</g>
<mask id="mask2_1591_577" style="mask-type:alpha" maskUnits="userSpaceOnUse" x="98" y="110" width="31" height="30">
<path d="M128.363 110.455H98.9087V139.91H128.363V110.455Z" fill="#D9D9D9"/>
</mask>
<g mask="url(#mask2_1591_577)">
<path d="M119.868 125.796H105.044V124.569H119.868L112.76 117.46L113.635 116.592L122.226 125.183L113.635 133.774L112.76 132.905L119.868 125.796Z" fill="#F2F0E7"/>
</g>
<mask id="mask3_1591_577" style="mask-type:alpha" maskUnits="userSpaceOnUse" x="138" y="110" width="30" height="30">
<path d="M167.636 110.455H138.181V139.91H167.636V110.455Z" fill="#D9D9D9"/>
</mask>
<g mask="url(#mask3_1591_577)">
<path d="M153.004 133.774C150.605 133.774 148.574 132.942 146.909 131.278C145.245 129.614 144.413 127.584 144.413 125.186C144.413 122.789 145.245 120.757 146.909 119.091C148.574 117.425 150.605 116.592 153.004 116.592C154.462 116.592 155.828 116.938 157.101 117.631C158.374 118.324 159.399 119.292 160.178 120.533V116.592H161.405V123.011H154.986V121.784H159.527C158.888 120.56 157.989 119.593 156.831 118.883C155.672 118.174 154.396 117.819 153.004 117.819C150.958 117.819 149.219 118.535 147.788 119.967C146.356 121.399 145.64 123.137 145.64 125.183C145.64 127.228 146.356 128.967 147.788 130.399C149.219 131.83 150.958 132.546 153.004 132.546C154.579 132.546 156 132.096 157.268 131.196C158.537 130.296 159.426 129.11 159.938 127.637H161.24C160.699 129.475 159.671 130.957 158.156 132.084C156.64 133.21 154.923 133.774 153.004 133.774Z" fill="#F2F0E7"/>
</g>
<path d="M473.228 101.25H211.819C198.601 101.25 187.887 111.965 187.887 125.182C187.887 138.399 198.601 149.114 211.819 149.114H473.228C486.445 149.114 497.159 138.399 497.159 125.182C497.159 111.965 486.445 101.25 473.228 101.25Z" stroke="#F2F0E7" stroke-width="1.22727"/>
<path d="M211.818 144.206C222.324 144.206 230.841 135.689 230.841 125.183C230.841 114.677 222.324 106.16 211.818 106.16C201.312 106.16 192.795 114.677 192.795 125.183C192.795 135.689 201.312 144.206 211.818 144.206Z" stroke="#F2F0E7" stroke-width="1.22727"/>
<path d="M257.646 116.982L253.043 134.081H251.538L256.14 116.982H257.646ZM260.656 135.949C260.378 135.949 260.129 135.926 259.91 135.88C259.692 135.838 259.541 135.796 259.457 135.754L259.876 134.304C260.275 134.406 260.628 134.443 260.935 134.415C261.242 134.387 261.514 134.25 261.751 134.004C261.993 133.762 262.214 133.369 262.414 132.825L262.721 131.989L258.76 121.222H260.545L263.501 129.757H263.613L266.569 121.222H268.355L263.808 133.495C263.604 134.048 263.35 134.506 263.048 134.868C262.746 135.236 262.395 135.508 261.995 135.684C261.6 135.861 261.153 135.949 260.656 135.949ZM274.495 132.156C273.528 132.156 272.679 131.926 271.95 131.466C271.224 131.005 270.657 130.362 270.247 129.534C269.844 128.707 269.641 127.74 269.641 126.633C269.641 125.517 269.844 124.544 270.247 123.711C270.657 122.879 271.224 122.233 271.95 121.773C272.679 121.313 273.528 121.083 274.495 121.083C275.461 121.083 276.308 121.313 277.033 121.773C277.762 122.233 278.33 122.879 278.734 123.711C279.143 124.544 279.348 125.517 279.348 126.633C279.348 127.74 279.143 128.707 278.734 129.534C278.33 130.362 277.762 131.005 277.033 131.466C276.308 131.926 275.461 132.156 274.495 132.156ZM274.495 130.678C275.229 130.678 275.834 130.489 276.308 130.113C276.781 129.736 277.132 129.241 277.361 128.628C277.588 128.014 277.702 127.349 277.702 126.633C277.702 125.917 277.588 125.25 277.361 124.632C277.132 124.014 276.781 123.514 276.308 123.133C275.834 122.751 275.229 122.561 274.495 122.561C273.76 122.561 273.156 122.751 272.681 123.133C272.207 123.514 271.856 124.014 271.628 124.632C271.401 125.25 271.287 125.917 271.287 126.633C271.287 127.349 271.401 128.014 271.628 128.628C271.856 129.241 272.207 129.736 272.681 130.113C273.156 130.489 273.76 130.678 274.495 130.678ZM288.61 127.554V121.222H290.256V131.933H288.61V130.12H288.498C288.248 130.664 287.856 131.126 287.327 131.507C286.797 131.884 286.127 132.072 285.318 132.072C284.649 132.072 284.054 131.926 283.534 131.633C283.012 131.335 282.604 130.889 282.307 130.294C282.008 129.694 281.86 128.939 281.86 128.028V121.222H283.506V127.916C283.506 128.697 283.724 129.32 284.161 129.785C284.603 130.25 285.165 130.482 285.848 130.482C286.257 130.482 286.673 130.378 287.097 130.169C287.525 129.959 287.882 129.639 288.17 129.206C288.464 128.774 288.61 128.223 288.61 127.554ZM293.27 131.933V121.222H294.859V122.84H294.971C295.166 122.31 295.519 121.88 296.031 121.55C296.543 121.22 297.119 121.055 297.76 121.055C297.881 121.055 298.033 121.057 298.213 121.062C298.395 121.066 298.532 121.073 298.626 121.083V122.756C298.569 122.742 298.442 122.721 298.241 122.693C298.046 122.661 297.839 122.645 297.62 122.645C297.1 122.645 296.635 122.754 296.226 122.972C295.821 123.186 295.501 123.484 295.264 123.865C295.032 124.241 294.916 124.671 294.916 125.155V131.933H293.27ZM305.925 125.043V126.577H299.677V125.043H305.925ZM308.822 131.933V121.222H310.411V122.84H310.523C310.718 122.31 311.071 121.88 311.583 121.55C312.094 121.22 312.671 121.055 313.312 121.055C313.433 121.055 313.584 121.057 313.765 121.062C313.947 121.066 314.084 121.073 314.176 121.083V122.756C314.121 122.742 313.994 122.721 313.793 122.693C313.598 122.661 313.391 122.645 313.172 122.645C312.652 122.645 312.187 122.754 311.778 122.972C311.373 123.186 311.053 123.484 310.816 123.865C310.583 124.241 310.468 124.671 310.468 125.155V131.933H308.822ZM320.292 132.156C319.26 132.156 318.37 131.928 317.621 131.473C316.878 131.012 316.303 130.371 315.899 129.548C315.499 128.721 315.299 127.758 315.299 126.661C315.299 125.564 315.499 124.597 315.899 123.76C316.303 122.919 316.867 122.263 317.587 121.794C318.312 121.32 319.158 121.083 320.125 121.083C320.683 121.083 321.233 121.176 321.778 121.362C322.322 121.548 322.816 121.85 323.263 122.268C323.709 122.682 324.065 123.23 324.33 123.914C324.595 124.597 324.727 125.438 324.727 126.438V127.135H316.471V125.713H323.053C323.053 125.108 322.933 124.569 322.691 124.095C322.454 123.621 322.114 123.247 321.673 122.972C321.236 122.698 320.72 122.561 320.125 122.561C319.47 122.561 318.903 122.724 318.424 123.049C317.949 123.37 317.585 123.788 317.329 124.304C317.073 124.82 316.945 125.373 316.945 125.964V126.912C316.945 127.721 317.085 128.407 317.364 128.969C317.647 129.527 318.04 129.952 318.542 130.245C319.044 130.533 319.628 130.678 320.292 130.678C320.725 130.678 321.115 130.617 321.464 130.496C321.817 130.371 322.122 130.185 322.377 129.938C322.634 129.688 322.831 129.376 322.97 129.004L324.56 129.45C324.392 129.99 324.111 130.464 323.716 130.873C323.321 131.277 322.832 131.593 322.252 131.821C321.67 132.044 321.017 132.156 320.292 132.156ZM327.231 135.949V121.222H328.82V122.924H329.015C329.137 122.738 329.304 122.5 329.517 122.212C329.736 121.919 330.047 121.659 330.452 121.431C330.861 121.199 331.415 121.083 332.112 121.083C333.014 121.083 333.809 121.308 334.496 121.759C335.185 122.21 335.721 122.849 336.108 123.677C336.493 124.504 336.686 125.48 336.686 126.605C336.686 127.74 336.493 128.723 336.108 129.555C335.721 130.382 335.187 131.024 334.504 131.48C333.82 131.93 333.032 132.156 332.14 132.156C331.451 132.156 330.9 132.042 330.487 131.814C330.073 131.582 329.755 131.319 329.532 131.026C329.309 130.729 329.137 130.482 329.015 130.287H328.877V135.949H327.231ZM328.848 126.577C328.848 127.386 328.967 128.1 329.204 128.718C329.441 129.332 329.787 129.813 330.243 130.162C330.699 130.506 331.256 130.678 331.917 130.678C332.605 130.678 333.178 130.496 333.638 130.134C334.104 129.766 334.452 129.274 334.685 128.655C334.922 128.033 335.04 127.34 335.04 126.577C335.04 125.824 334.925 125.146 334.691 124.541C334.464 123.932 334.118 123.451 333.653 123.098C333.193 122.74 332.614 122.561 331.917 122.561C331.248 122.561 330.684 122.731 330.229 123.07C329.774 123.405 329.429 123.874 329.197 124.478C328.965 125.078 328.848 125.778 328.848 126.577ZM340.843 117.652V131.933H339.197V117.652H340.843ZM347.008 132.184C346.33 132.184 345.714 132.056 345.16 131.8C344.607 131.54 344.167 131.166 343.842 130.678C343.517 130.185 343.355 129.59 343.355 128.892C343.355 128.279 343.475 127.781 343.717 127.4C343.959 127.014 344.281 126.712 344.686 126.494C345.09 126.275 345.537 126.113 346.025 126.006C346.517 125.894 347.013 125.806 347.51 125.741C348.161 125.657 348.689 125.594 349.094 125.552C349.502 125.506 349.799 125.429 349.986 125.322C350.176 125.215 350.272 125.029 350.272 124.764V124.709C350.272 124.021 350.084 123.486 349.707 123.105C349.335 122.724 348.77 122.533 348.012 122.533C347.227 122.533 346.611 122.705 346.164 123.049C345.719 123.393 345.404 123.76 345.223 124.151L343.662 123.593C343.94 122.942 344.312 122.435 344.777 122.073C345.246 121.706 345.758 121.45 346.311 121.306C346.868 121.157 347.417 121.083 347.957 121.083C348.301 121.083 348.696 121.124 349.141 121.208C349.593 121.287 350.027 121.452 350.446 121.703C350.869 121.954 351.22 122.333 351.499 122.84C351.778 123.347 351.917 124.025 351.917 124.876V131.933H350.272V130.482H350.188C350.077 130.715 349.89 130.964 349.63 131.228C349.37 131.493 349.024 131.719 348.592 131.905C348.158 132.091 347.631 132.184 347.008 132.184ZM347.259 130.706C347.91 130.706 348.459 130.578 348.905 130.322C349.356 130.066 349.695 129.736 349.923 129.332C350.155 128.927 350.272 128.502 350.272 128.056V126.55C350.202 126.633 350.048 126.71 349.811 126.78C349.58 126.845 349.31 126.903 349.003 126.954C348.701 127.001 348.405 127.042 348.117 127.08C347.833 127.112 347.604 127.14 347.427 127.163C346.999 127.219 346.598 127.31 346.227 127.435C345.86 127.556 345.563 127.74 345.334 127.986C345.111 128.228 344.999 128.558 344.999 128.976C344.999 129.548 345.212 129.98 345.635 130.273C346.062 130.561 346.603 130.706 347.259 130.706ZM355.597 135.949C355.318 135.949 355.069 135.926 354.851 135.88C354.632 135.838 354.481 135.796 354.398 135.754L354.816 134.304C355.216 134.406 355.57 134.443 355.877 134.415C356.183 134.387 356.455 134.25 356.692 134.004C356.933 133.762 357.154 133.369 357.354 132.825L357.661 131.989L353.701 121.222H355.485L358.443 129.757H358.553L361.511 121.222H363.296L358.75 133.495C358.545 134.048 358.291 134.506 357.989 134.868C357.687 135.236 357.336 135.508 356.936 135.684C356.541 135.861 356.095 135.949 355.597 135.949ZM373.055 123.621L371.576 124.039C371.484 123.793 371.346 123.553 371.165 123.321C370.988 123.084 370.746 122.889 370.439 122.735C370.133 122.582 369.74 122.505 369.261 122.505C368.606 122.505 368.06 122.656 367.623 122.958C367.19 123.256 366.974 123.635 366.974 124.095C366.974 124.504 367.123 124.827 367.42 125.064C367.717 125.301 368.183 125.499 368.815 125.657L370.405 126.047C371.362 126.28 372.075 126.636 372.545 127.114C373.016 127.589 373.25 128.2 373.25 128.948C373.25 129.562 373.073 130.111 372.72 130.594C372.371 131.077 371.883 131.459 371.256 131.738C370.628 132.017 369.898 132.156 369.066 132.156C367.974 132.156 367.069 131.919 366.354 131.445C365.637 130.971 365.184 130.278 364.994 129.367L366.555 128.976C366.705 129.553 366.986 129.985 367.399 130.273C367.818 130.561 368.364 130.706 369.038 130.706C369.805 130.706 370.414 130.543 370.865 130.217C371.321 129.887 371.549 129.492 371.549 129.032C371.549 128.66 371.419 128.349 371.157 128.098C370.897 127.842 370.498 127.651 369.958 127.526L368.174 127.107C367.192 126.875 366.472 126.515 366.011 126.027C365.556 125.534 365.328 124.918 365.328 124.179C365.328 123.574 365.498 123.04 365.837 122.575C366.181 122.11 366.648 121.745 367.239 121.48C367.834 121.215 368.508 121.083 369.261 121.083C370.322 121.083 371.154 121.315 371.758 121.78C372.366 122.245 372.799 122.858 373.055 123.621Z" fill="#F2F0E7"/>
<path d="M64.5455 184.705H352.955C355.327 184.705 357.25 186.628 357.25 189.001V346.091C357.25 348.464 355.327 350.387 352.955 350.387H64.5455C62.1731 350.387 60.25 348.464 60.25 346.091V189.001C60.25 186.628 62.1731 184.705 64.5455 184.705Z" fill="#1C2024"/>
<path d="M64.5455 184.705H352.955C355.327 184.705 357.25 186.628 357.25 189.001V346.091C357.25 348.464 355.327 350.387 352.955 350.387H64.5455C62.1731 350.387 60.25 348.464 60.25 346.091V189.001C60.25 186.628 62.1731 184.705 64.5455 184.705Z" stroke="#F2F0E7" stroke-width="1.22727"/>
<path d="M237.591 267.546C237.591 251.618 224.678 238.705 208.75 238.705C192.822 238.705 179.909 251.618 179.909 267.546C179.909 283.474 192.822 296.387 208.75 296.387C224.678 296.387 237.591 283.474 237.591 267.546Z" stroke="#F2F0E7" stroke-width="1.22727"/>
<path d="M204.085 277.363L218.322 267.545L204.085 257.727V277.363Z" fill="#F2F0E7"/>
<path d="M290.363 309.887H343.136C345.508 309.887 347.432 311.81 347.432 314.182V336.273C347.432 338.645 345.508 340.569 343.136 340.569H290.363C287.991 340.569 286.068 338.645 286.068 336.273V314.182C286.068 311.81 287.991 309.887 290.363 309.887Z" stroke="#F2F0E7" stroke-width="1.22727"/>
<path d="M300.96 318.868V331.364H299.446V320.455H299.373L296.322 322.48V320.943L299.446 318.868H300.96ZM304.26 328.801V327.557L309.752 318.868H310.654V320.796H310.044L305.896 327.362V327.459H313.29V328.801H304.26ZM310.142 331.364V328.423V327.843V318.868H311.582V331.364H310.142ZM316.65 329.765C316.35 329.765 316.091 329.658 315.876 329.442C315.66 329.226 315.552 328.968 315.552 328.668C315.552 328.366 315.66 328.108 315.876 327.892C316.091 327.677 316.35 327.569 316.65 327.569C316.951 327.569 317.21 327.677 317.426 327.892C317.641 328.108 317.749 328.366 317.749 328.668C317.749 328.866 317.698 329.049 317.597 329.216C317.498 329.383 317.367 329.517 317.2 329.619C317.037 329.717 316.854 329.765 316.65 329.765ZM316.65 323.444C316.35 323.444 316.091 323.336 315.876 323.12C315.66 322.906 315.552 322.647 315.552 322.346C315.552 322.045 315.66 321.786 315.876 321.572C316.091 321.356 316.35 321.248 316.65 321.248C316.951 321.248 317.21 321.356 317.426 321.572C317.641 321.786 317.749 322.045 317.749 322.346C317.749 322.545 317.698 322.729 317.597 322.895C317.498 323.061 317.367 323.196 317.2 323.298C317.037 323.395 316.854 323.444 316.65 323.444ZM324.531 331.535C323.726 331.535 323.008 331.397 322.377 331.12C321.751 330.844 321.253 330.459 320.882 329.967C320.516 329.47 320.316 328.895 320.284 328.241H321.822C321.854 328.643 321.993 328.99 322.237 329.284C322.481 329.572 322.8 329.795 323.194 329.955C323.589 330.113 324.026 330.192 324.506 330.192C325.044 330.192 325.519 330.099 325.933 329.912C326.349 329.724 326.675 329.464 326.91 329.13C327.146 328.798 327.264 328.411 327.264 327.972C327.264 327.512 327.15 327.107 326.923 326.757C326.694 326.403 326.361 326.127 325.922 325.927C325.483 325.728 324.945 325.629 324.311 325.629H323.311V324.286H324.311C324.807 324.286 325.242 324.197 325.617 324.018C325.995 323.838 326.289 323.587 326.502 323.261C326.718 322.936 326.824 322.553 326.824 322.114C326.824 321.691 326.731 321.322 326.545 321.009C326.357 320.696 326.093 320.452 325.751 320.278C325.413 320.102 325.014 320.015 324.555 320.015C324.124 320.015 323.717 320.094 323.335 320.253C322.956 320.408 322.647 320.634 322.407 320.931C322.167 321.223 322.037 321.578 322.017 321.992H320.553C320.576 321.337 320.774 320.764 321.145 320.272C321.514 319.775 321.999 319.388 322.596 319.112C323.199 318.836 323.859 318.697 324.58 318.697C325.353 318.697 326.016 318.854 326.569 319.167C327.121 319.477 327.547 319.885 327.844 320.393C328.141 320.901 328.29 321.451 328.29 322.04C328.29 322.745 328.104 323.345 327.734 323.841C327.368 324.337 326.87 324.68 326.239 324.872V324.97C327.028 325.1 327.644 325.435 328.087 325.976C328.532 326.514 328.752 327.178 328.752 327.972C328.752 328.65 328.568 329.26 328.198 329.802C327.832 330.339 327.331 330.761 326.697 331.071C326.062 331.38 325.341 331.535 324.531 331.535ZM335.641 318.868V331.364H334.128V320.455H334.056L331.005 322.48V320.943L334.128 318.868H335.641Z" fill="#F2F0E7"/>
<path d="M382.409 184.705H670.818C673.19 184.705 675.113 186.628 675.113 189.001V346.091C675.113 348.464 673.19 350.387 670.818 350.387H382.409C380.036 350.387 378.113 348.464 378.113 346.091V189.001C378.113 186.628 380.036 184.705 382.409 184.705Z" fill="#1C2024"/>
<path d="M382.409 184.705H670.818C673.19 184.705 675.113 186.628 675.113 189.001V346.091C675.113 348.464 673.19 350.387 670.818 350.387H382.409C380.036 350.387 378.113 348.464 378.113 346.091V189.001C378.113 186.628 380.036 184.705 382.409 184.705Z" stroke="#F2F0E7" stroke-width="1.22727"/>
</g>
</g>
<defs>
<clipPath id="clip0_1591_577">
<rect width="432" height="289.636" fill="white" transform="translate(40 81)"/>
</clipPath>
</defs>
</svg>
