<svg width="512" height="452" viewBox="0 0 512 452" fill="none" xmlns="http://www.w3.org/2000/svg">
<rect x="0.5" y="0.5" width="511" height="451" fill="#E1DCCF" stroke="#1C2024"/>
<g clip-path="url(#clip0_1588_272)">
<path d="M96 71.3333C96 68.3878 98.3878 66 101.333 66H202.667V172.667H96V71.3333Z" fill="#1C2024"/>
<mask id="mask0_1588_272" style="mask-type:luminance" maskUnits="userSpaceOnUse" x="96" y="66" width="107" height="107">
<path d="M96 71.3333C96 68.3878 98.3878 66 101.333 66H202.667V172.667H96V71.3333Z" fill="white"/>
</mask>
<g mask="url(#mask0_1588_272)">
<path d="M203.333 173.333H96V172H202L203.333 173.333ZM203.333 66V173.333L202 172V66H203.333Z" fill="#E1DCCF"/>
</g>
<path d="M96 172.666H202.667V279.333H96V172.666Z" fill="#1C2024"/>
<mask id="mask1_1588_272" style="mask-type:luminance" maskUnits="userSpaceOnUse" x="96" y="172" width="107" height="108">
<path d="M96 172.666H202.667V279.333H96V172.666Z" fill="white"/>
</mask>
<g mask="url(#mask1_1588_272)">
<path d="M202.667 172.667H203.333V172H202.667V172.667ZM202.667 279.333V280H203.333V279.333H202.667ZM96 172.667V173.333H202.667V172.667V172H96V172.667ZM202.667 172.667H202V279.333H202.667H203.333V172.667H202.667ZM202.667 279.333V278.667H96V279.333V280H202.667V279.333Z" fill="#E1DCCF"/>
</g>
<path d="M309.333 172.666H416V279.333H309.333V172.666Z" fill="#1C2024"/>
<mask id="mask2_1588_272" style="mask-type:luminance" maskUnits="userSpaceOnUse" x="309" y="172" width="107" height="108">
<path d="M309.333 172.666H416V279.333H309.333V172.666Z" fill="white"/>
</mask>
<g mask="url(#mask2_1588_272)">
<path d="M309.333 172.667V172H308.666V172.667H309.333ZM309.333 279.333H308.666V280H309.333V279.333ZM309.333 172.667V173.333H415.999V172.667V172H309.333V172.667ZM415.999 279.333V278.667H309.333V279.333V280H415.999V279.333ZM309.333 279.333H309.999V172.667H309.333H308.666V279.333H309.333Z" fill="#E1DCCF"/>
</g>
<path d="M96 279.334H202.667V386.001H101.333C98.3878 386.001 96 383.613 96 380.667V279.334Z" fill="#1C2024"/>
<mask id="mask3_1588_272" style="mask-type:luminance" maskUnits="userSpaceOnUse" x="96" y="279" width="107" height="107">
<path d="M96 279.334H202.667V386.001H101.333C98.3878 386.001 96 383.613 96 380.667V279.334Z" fill="white"/>
</mask>
<g mask="url(#mask3_1588_272)">
<path d="M96 278.668H203.333L202 280.001H96V278.668ZM203.333 278.668V386.001H202V280.001L203.333 278.668Z" fill="#E1DCCF"/>
</g>
<path d="M202.667 279.334H309.334V386.001H202.667V279.334Z" fill="#1C2024"/>
<mask id="mask4_1588_272" style="mask-type:luminance" maskUnits="userSpaceOnUse" x="202" y="279" width="108" height="107">
<path d="M202.667 279.334H309.334V386.001H202.667V279.334Z" fill="white"/>
</mask>
<g mask="url(#mask4_1588_272)">
<path d="M202.667 279.335V278.668H202V279.335H202.667ZM309.333 279.335H310V278.668H309.333V279.335ZM202.667 279.335V280.001H309.333V279.335V278.668H202.667V279.335ZM309.333 279.335H308.667V386.001H309.333H310V279.335H309.333ZM202.667 386.001H203.333V279.335H202.667H202V386.001H202.667Z" fill="#E1DCCF"/>
</g>
<path d="M309.333 279.334H416V380.667C416 383.613 413.612 386.001 410.666 386.001H309.333V279.334Z" fill="#1C2024"/>
<mask id="mask5_1588_272" style="mask-type:luminance" maskUnits="userSpaceOnUse" x="309" y="279" width="107" height="107">
<path d="M309.333 279.334H416V380.667C416 383.613 413.612 386.001 410.666 386.001H309.333V279.334Z" fill="white"/>
</mask>
<g mask="url(#mask5_1588_272)">
<path d="M308.666 278.668H415.999V280.001H309.999L308.666 278.668ZM308.666 386.001V278.668L309.999 280.001V386.001H308.666Z" fill="#E1DCCF"/>
</g>
<path d="M202.667 66H309.334V172.667H202.667V66Z" fill="#1C2024"/>
<mask id="mask6_1588_272" style="mask-type:luminance" maskUnits="userSpaceOnUse" x="202" y="66" width="108" height="107">
<path d="M202.667 66H309.334V172.667H202.667V66Z" fill="white"/>
</mask>
<g mask="url(#mask6_1588_272)">
<path d="M309.333 172.667V173.333H310V172.667H309.333ZM202.667 172.667H202V173.333H202.667V172.667ZM309.333 66H308.667V172.667H309.333H310V66H309.333ZM309.333 172.667V172H202.667V172.667V173.333H309.333V172.667ZM202.667 172.667H203.333V66H202.667H202V172.667H202.667Z" fill="#E1DCCF"/>
</g>
<path d="M216.962 86.6321L224.543 79.0513L223.704 78.2125L216.962 84.9544L213.584 81.5767L212.745 82.4155L216.962 86.6321ZM218.671 92.6673C217.196 92.6673 215.809 92.3875 214.51 91.8276C213.212 91.2679 212.082 90.5081 211.122 89.5485C210.161 88.5889 209.401 87.4604 208.841 86.1631C208.28 84.8659 208 83.4797 208 82.0045C208 80.5296 208.28 79.1428 208.84 77.8442C209.399 76.5458 210.159 75.4164 211.119 74.4558C212.078 73.4952 213.207 72.7348 214.504 72.1746C215.801 71.6142 217.188 71.334 218.663 71.334C220.138 71.334 221.525 71.6139 222.823 72.1737C224.121 72.7335 225.251 73.4932 226.212 74.4528C227.172 75.4124 227.933 76.5409 228.493 77.8383C229.053 79.1355 229.333 80.5216 229.333 81.9968C229.333 83.4717 229.053 84.8585 228.494 86.1571C227.934 87.4555 227.174 88.5849 226.215 89.5456C225.255 90.5061 224.126 91.2665 222.829 91.8268C221.532 92.3872 220.146 92.6673 218.671 92.6673Z" fill="#E1DCCF"/>
<path d="M309.333 66H410.666C413.612 66 416 68.3878 416 71.3333V172.667H309.333V66Z" fill="#1C2024"/>
<mask id="mask7_1588_272" style="mask-type:luminance" maskUnits="userSpaceOnUse" x="309" y="66" width="107" height="107">
<path d="M309.333 66H410.666C413.612 66 416 68.3878 416 71.3333V172.667H309.333V66Z" fill="white"/>
</mask>
<g mask="url(#mask7_1588_272)">
<path d="M415.999 173.333H308.666L309.999 172H415.999V173.333ZM308.666 173.333V66H309.999V172L308.666 173.333Z" fill="#E1DCCF"/>
</g>
<path d="M323.628 86.6321L331.21 79.0513L330.371 78.2125L323.628 84.9544L320.251 81.5767L319.412 82.4155L323.628 86.6321ZM325.338 92.6673C323.863 92.6673 322.476 92.3875 321.178 91.8276C319.879 91.2679 318.75 90.5081 317.788 89.5485C316.828 88.5889 316.068 87.4604 315.507 86.1631C314.947 84.8659 314.667 83.4797 314.667 82.0045C314.667 80.5296 314.947 79.1428 315.507 77.8442C316.067 76.5458 316.826 75.4164 317.786 74.4558C318.746 73.4952 319.874 72.7348 321.171 72.1746C322.468 71.6142 323.855 71.334 325.33 71.334C326.804 71.334 328.191 71.6139 329.49 72.1737C330.788 72.7335 331.918 73.4932 332.879 74.4528C333.839 75.4124 334.599 76.5409 335.16 77.8383C335.72 79.1355 336 80.5216 336 81.9968C336 83.4717 335.72 84.8585 335.16 86.1571C334.6 87.4555 333.842 88.5849 332.882 89.5456C331.922 90.5061 330.794 91.2665 329.496 91.8268C328.199 92.3872 326.812 92.6673 325.338 92.6673Z" fill="#E1DCCF"/>
<path d="M309 173H203V279H309V173Z" fill="#1C2024"/>
<path d="M309 173H203V279H309V173Z" stroke="#E1DCCF" stroke-width="0.666667"/>
<path d="M216.962 193.298L224.543 185.717L223.704 184.879L216.962 191.62L213.584 188.243L212.745 189.081L216.962 193.298ZM218.671 199.333C217.196 199.333 215.809 199.053 214.51 198.494C213.212 197.934 212.082 197.174 211.122 196.215C210.161 195.255 209.401 194.126 208.841 192.829C208.28 191.532 208 190.146 208 188.671C208 187.196 208.28 185.809 208.84 184.51C209.399 183.212 210.159 182.082 211.119 181.122C212.078 180.161 213.207 179.401 214.504 178.841C215.801 178.28 217.188 178 218.663 178C220.138 178 221.525 178.28 222.823 178.84C224.121 179.399 225.251 180.159 226.212 181.119C227.172 182.078 227.933 183.207 228.493 184.504C229.053 185.801 229.333 187.188 229.333 188.663C229.333 190.138 229.053 191.525 228.494 192.823C227.934 194.121 227.174 195.251 226.215 196.212C225.255 197.172 224.126 197.933 222.829 198.493C221.532 199.053 220.146 199.333 218.671 199.333Z" fill="#E1DCCF"/>
<path d="M382.252 283.203V385.999H338.418V321.294C338.418 319.214 336.739 317.527 334.668 317.526C332.598 317.526 330.918 319.214 330.918 321.294C330.918 321.374 330.922 321.454 330.927 321.532V385.999H286.36V283.203L294.922 266.43H373.69L382.252 283.203Z" fill="#E1DCCF"/>
<path fill-rule="evenodd" clip-rule="evenodd" d="M374.008 263.901H295.325V226.111H374.008V263.901ZM322.416 261.425H323.228V228.581H322.416V261.425ZM345.575 261.425H346.388V228.581H345.575V261.425ZM334.401 248.874C332.204 248.874 330.42 250.665 330.42 252.874C330.42 255.083 332.204 256.873 334.401 256.874C336.6 256.873 338.383 255.083 338.383 252.874C338.383 250.665 336.6 248.874 334.401 248.874ZM361.901 234.542C361.293 232.667 358.648 232.667 358.04 234.542L357.073 237.545H353.94C351.979 237.545 351.157 240.074 352.749 241.235L355.284 243.085L354.316 246.086C353.709 247.962 355.848 249.527 357.441 248.366L359.975 246.517L362.509 248.366C364.101 249.527 366.243 247.962 365.635 246.086L364.668 243.085L367.201 241.235C368.793 240.074 367.98 237.545 366.011 237.545H362.879L361.911 234.542H361.901ZM334.401 233.139C332.204 233.139 330.42 234.931 330.42 237.139C330.42 239.349 332.204 241.139 334.401 241.139C336.6 241.139 338.383 239.349 338.383 237.139C338.383 234.931 336.6 233.139 334.401 233.139Z" fill="#E1DCCF"/>
<path fill-rule="evenodd" clip-rule="evenodd" d="M334.676 172.924C352.604 172.924 367.141 187.53 367.141 205.543V223.763H302.201V205.543C302.201 187.53 316.739 172.924 334.667 172.924H334.676ZM343.245 202.087C339.539 201.079 335.777 202.937 334.667 206.125C333.557 202.937 329.796 201.079 326.088 202.087C321.8 203.248 319.547 208.512 314.975 208.512C310.188 208.511 306.789 204.407 306.756 204.367C306.761 204.405 307.441 209.736 312.073 212.881C317.654 216.667 332.741 216.22 334.651 210.181H334.659C334.661 210.172 334.664 210.161 334.667 210.152C334.669 210.161 334.672 210.172 334.676 210.181H334.684C336.593 216.22 351.679 216.667 357.261 212.881C361.892 209.736 362.573 204.405 362.579 204.367C362.543 204.409 359.145 208.512 354.359 208.512C349.788 208.512 347.535 203.248 343.245 202.087Z" fill="#E1DCCF"/>
<path d="M380.85 153.381C395.062 153.381 410.062 171.231 398.615 190.069C392.596 199.979 381.5 208.986 369.026 215.308H368.554V205.278C368.554 186.474 353.383 171.231 334.667 171.23C315.951 171.231 300.78 186.474 300.78 205.278V215.308H300.308C287.843 208.986 276.738 199.979 270.719 190.069C259.272 171.231 274.272 153.381 288.484 153.381C305.651 153.381 318.092 164.684 334.667 164.684C351.243 164.684 363.675 153.381 380.85 153.381Z" fill="#E1DCCF"/>
<path d="M348.983 119.334C354.701 119.334 365.077 136.237 370.445 153.57C358.203 156.547 347.715 163.549 334.667 163.549C321.619 163.549 311.131 156.555 298.887 153.57C304.256 136.238 314.632 119.335 320.351 119.334C325.291 119.334 327.955 123.497 334.667 123.497C341.379 123.497 344.051 119.334 348.983 119.334Z" fill="#E1DCCF"/>
</g>
<defs>
<clipPath id="clip0_1588_272">
<rect width="320" height="320" fill="white" transform="translate(96 66)"/>
</clipPath>
</defs>
</svg>
