<svg width="512" height="452" viewBox="0 0 512 452" fill="none" xmlns="http://www.w3.org/2000/svg">
<rect x="0.5" y="0.5" width="511" height="451" fill="#81B300" stroke="#1C2024"/>
<mask id="mask0_1588_274" style="mask-type:luminance" maskUnits="userSpaceOnUse" x="118" y="140" width="278" height="99">
<path d="M118.909 144.912C118.909 142.199 121.117 140 123.841 140H390.159C392.883 140 395.091 142.199 395.091 144.912V233.331C395.091 236.044 392.883 238.243 390.159 238.243H123.841C121.117 238.243 118.909 236.044 118.909 233.331V144.912Z" fill="white"/>
</mask>
<g mask="url(#mask0_1588_274)">
<path d="M118.909 144.912C118.909 142.199 121.117 140 123.841 140H390.159C392.883 140 395.091 142.199 395.091 144.912V233.331C395.091 236.044 392.883 238.243 390.159 238.243H123.841C121.117 238.243 118.909 236.044 118.909 233.331V144.912Z" fill="#1C2024"/>
<path d="M197.202 189.123C197.202 173.184 184.229 160.264 168.227 160.264C152.225 160.264 139.253 173.184 139.253 189.123C139.253 205.061 152.225 217.982 168.227 217.982C184.229 217.982 197.202 205.061 197.202 189.123Z" stroke="#81B300" stroke-width="0.702729"/>
<mask id="mask1_1588_274" style="mask-type:alpha" maskUnits="userSpaceOnUse" x="148" y="169" width="40" height="40">
<path d="M187.955 169.473H148.5V208.77H187.955V169.473Z" fill="#D9D9D9"/>
</mask>
<g mask="url(#mask1_1588_274)">
<path d="M156.72 200.205V198.946H159.376V185.525C159.376 183.383 160.048 181.483 161.394 179.824C162.74 178.165 164.47 177.151 166.583 176.781V176.022C166.583 175.567 166.742 175.181 167.062 174.862C167.381 174.544 167.768 174.385 168.223 174.385C168.679 174.385 169.068 174.544 169.39 174.862C169.71 175.181 169.872 175.567 169.872 176.022V176.797C171.985 177.156 173.715 178.165 175.061 179.824C176.406 181.483 177.08 183.383 177.08 185.525V198.946H179.735V200.205H156.72ZM168.222 204.487C167.49 204.487 166.866 204.228 166.348 203.71C165.83 203.192 165.571 202.57 165.571 201.843H170.883C170.883 202.575 170.623 203.199 170.101 203.714C169.579 204.23 168.953 204.487 168.222 204.487ZM160.64 198.946H175.814V185.525C175.814 183.437 175.075 181.655 173.594 180.18C172.113 178.706 170.324 177.968 168.227 177.968C166.13 177.968 164.342 178.706 162.861 180.18C161.38 181.655 160.64 183.437 160.64 185.525V198.946Z" fill="#81B300"/>
</g>
<path d="M277.165 177.594C276.613 177.594 276.13 177.449 275.715 177.158C275.301 176.867 274.977 176.462 274.744 175.941C274.513 175.421 274.397 174.815 274.397 174.123C274.397 173.434 274.513 172.831 274.744 172.313C274.977 171.793 275.302 171.389 275.72 171.101C276.137 170.81 276.624 170.665 277.178 170.665C277.587 170.665 277.927 170.737 278.199 170.883C278.47 171.025 278.687 171.203 278.851 171.415C279.014 171.627 279.141 171.833 279.232 172.034H279.302V168.523H280.085V177.455H279.323V176.212H279.232C279.141 176.415 279.012 176.625 278.846 176.84C278.68 177.052 278.46 177.231 278.185 177.376C277.914 177.522 277.574 177.594 277.165 177.594ZM277.257 176.883C277.692 176.883 278.063 176.766 278.369 176.53C278.676 176.292 278.909 175.965 279.069 175.549C279.233 175.13 279.314 174.651 279.314 174.11C279.314 173.575 279.234 173.102 279.074 172.693C278.914 172.28 278.68 171.957 278.374 171.724C278.067 171.489 277.694 171.371 277.257 171.371C276.808 171.371 276.428 171.493 276.119 171.737C275.812 171.979 275.579 172.306 275.418 172.719C275.261 173.131 275.182 173.595 275.182 174.11C275.182 174.63 275.262 175.1 275.422 175.518C275.584 175.937 275.817 176.27 276.124 176.517C276.432 176.761 276.81 176.883 277.257 176.883ZM284.839 177.594C284.212 177.594 283.669 177.449 283.211 177.158C282.752 176.864 282.398 176.459 282.147 175.941C281.899 175.421 281.774 174.822 281.774 174.145C281.774 173.47 281.899 172.871 282.147 172.348C282.398 171.822 282.743 171.41 283.185 171.114C283.629 170.814 284.14 170.665 284.721 170.665C285.086 170.665 285.437 170.731 285.776 170.865C286.115 170.996 286.419 171.198 286.688 171.471C286.959 171.742 287.173 172.083 287.331 172.496C287.488 172.906 287.567 173.392 287.567 173.953V174.336H282.313V173.652H286.77C286.77 173.222 286.683 172.835 286.508 172.492C286.335 172.146 286.095 171.873 285.785 171.672C285.478 171.471 285.124 171.371 284.721 171.371C284.294 171.371 283.92 171.484 283.595 171.711C283.272 171.938 283.018 172.238 282.835 172.61C282.653 172.982 282.561 173.389 282.558 173.831V174.241C282.558 174.773 282.65 175.238 282.835 175.636C283.021 176.031 283.285 176.338 283.626 176.556C283.968 176.774 284.372 176.883 284.839 176.883C285.157 176.883 285.436 176.834 285.675 176.735C285.918 176.636 286.12 176.504 286.284 176.338C286.451 176.17 286.577 175.985 286.66 175.784L287.4 176.024C287.299 176.306 287.13 176.566 286.897 176.805C286.667 177.043 286.378 177.235 286.03 177.38C285.686 177.523 285.289 177.594 284.839 177.594ZM289.099 179.967V170.756H289.857V172.034H289.949C290.042 171.833 290.171 171.628 290.335 171.419C290.497 171.207 290.713 171.028 290.982 170.883C291.253 170.737 291.595 170.665 292.007 170.665C292.561 170.665 293.046 170.81 293.46 171.101C293.878 171.389 294.202 171.793 294.433 172.313C294.666 172.831 294.783 173.434 294.783 174.123C294.783 174.815 294.666 175.421 294.433 175.941C294.202 176.462 293.878 176.867 293.46 177.158C293.046 177.449 292.564 177.594 292.015 177.594C291.61 177.594 291.269 177.522 290.996 177.376C290.724 177.231 290.504 177.052 290.335 176.84C290.168 176.625 290.04 176.415 289.949 176.212H289.878V179.967H289.099ZM289.87 174.11C289.87 174.651 289.95 175.13 290.111 175.549C290.274 175.965 290.508 176.292 290.812 176.53C291.118 176.766 291.489 176.883 291.924 176.883C292.37 176.883 292.746 176.761 293.053 176.517C293.363 176.27 293.598 175.937 293.759 175.518C293.921 175.1 294.004 174.63 294.004 174.11C294.004 173.595 293.923 173.131 293.762 172.719C293.604 172.306 293.371 171.979 293.062 171.737C292.752 171.493 292.373 171.371 291.924 171.371C291.486 171.371 291.114 171.489 290.807 171.724C290.501 171.957 290.267 172.28 290.107 172.693C289.949 173.102 289.87 173.575 289.87 174.11ZM297.086 168.523V177.455H296.307V168.523H297.086ZM301.578 177.594C300.997 177.594 300.483 177.447 300.037 177.154C299.593 176.86 299.246 176.454 298.995 175.937C298.743 175.417 298.619 174.816 298.619 174.136C298.619 173.45 298.743 172.847 298.995 172.326C299.246 171.803 299.593 171.396 300.037 171.105C300.483 170.811 300.997 170.665 301.578 170.665C302.159 170.665 302.672 170.811 303.115 171.105C303.558 171.399 303.906 171.806 304.157 172.326C304.411 172.847 304.538 173.45 304.538 174.136C304.538 174.816 304.413 175.417 304.161 175.937C303.911 176.454 303.562 176.86 303.115 177.154C302.672 177.447 302.159 177.594 301.578 177.594ZM301.578 176.883C302.045 176.883 302.441 176.758 302.764 176.508C303.088 176.258 303.334 175.925 303.5 175.51C303.669 175.094 303.754 174.636 303.754 174.136C303.754 173.636 303.669 173.176 303.5 172.758C303.334 172.339 303.088 172.003 302.764 171.75C302.441 171.498 302.045 171.371 301.578 171.371C301.114 171.371 300.719 171.498 300.392 171.75C300.068 172.003 299.821 172.339 299.652 172.758C299.486 173.176 299.402 173.636 299.402 174.136C299.402 174.636 299.486 175.094 299.652 175.51C299.821 175.925 300.068 176.258 300.392 176.508C300.716 176.758 301.111 176.883 301.578 176.883ZM306.366 179.967C306.211 179.967 306.067 179.952 305.933 179.923C305.798 179.894 305.691 179.862 305.613 179.827L305.823 179.142C306.088 179.224 306.325 179.253 306.532 179.229C306.739 179.209 306.923 179.116 307.084 178.95C307.245 178.788 307.388 178.538 307.513 178.2L307.759 177.52L305.284 170.756H306.13L308.126 176.43H308.188L310.184 170.756H311.029L308.183 178.514C308.063 178.837 307.915 179.106 307.74 179.321C307.565 179.539 307.363 179.7 307.132 179.805C306.904 179.913 306.649 179.967 306.366 179.967ZM314.847 177.594C314.219 177.594 313.677 177.449 313.218 177.158C312.76 176.864 312.406 176.459 312.154 175.941C311.906 175.421 311.782 174.822 311.782 174.145C311.782 173.47 311.906 172.871 312.154 172.348C312.406 171.822 312.751 171.41 313.192 171.114C313.635 170.814 314.148 170.665 314.729 170.665C315.094 170.665 315.445 170.731 315.784 170.865C316.122 170.996 316.426 171.198 316.694 171.471C316.966 171.742 317.181 172.083 317.338 172.496C317.495 172.906 317.574 173.392 317.574 173.953V174.336H312.321V173.652H316.778C316.778 173.222 316.69 172.835 316.515 172.492C316.343 172.146 316.102 171.873 315.793 171.672C315.486 171.471 315.132 171.371 314.729 171.371C314.302 171.371 313.927 171.484 313.603 171.711C313.28 171.938 313.026 172.238 312.841 172.61C312.661 172.982 312.569 173.389 312.566 173.831V174.241C312.566 174.773 312.657 175.238 312.841 175.636C313.028 176.031 313.292 176.338 313.634 176.556C313.975 176.774 314.38 176.883 314.847 176.883C315.165 176.883 315.444 176.834 315.683 176.735C315.926 176.636 316.128 176.504 316.292 176.338C316.458 176.17 316.584 175.985 316.668 175.784L317.408 176.024C317.306 176.306 317.138 176.566 316.905 176.805C316.674 177.043 316.386 177.235 316.038 177.38C315.693 177.523 315.296 177.594 314.847 177.594ZM321.528 177.594C320.977 177.594 320.494 177.449 320.08 177.158C319.664 176.867 319.341 176.462 319.107 175.941C318.876 175.421 318.762 174.815 318.762 174.123C318.762 173.434 318.876 172.831 319.107 172.313C319.341 171.793 319.667 171.389 320.083 171.101C320.501 170.81 320.987 170.665 321.542 170.665C321.95 170.665 322.29 170.737 322.562 170.883C322.833 171.025 323.051 171.203 323.214 171.415C323.378 171.627 323.505 171.833 323.595 172.034H323.665V168.523H324.449V177.455H323.687V176.212H323.595C323.505 176.415 323.377 176.625 323.21 176.84C323.044 177.052 322.823 177.231 322.548 177.376C322.277 177.522 321.937 177.594 321.528 177.594ZM321.621 176.883C322.055 176.883 322.426 176.766 322.733 176.53C323.039 176.292 323.273 175.965 323.433 175.549C323.596 175.13 323.679 174.651 323.679 174.11C323.679 173.575 323.597 173.102 323.437 172.693C323.277 172.28 323.044 171.957 322.737 171.724C322.431 171.489 322.059 171.371 321.621 171.371C321.171 171.371 320.791 171.493 320.482 171.737C320.176 171.979 319.942 172.306 319.781 172.719C319.623 173.131 319.545 173.595 319.545 174.11C319.545 174.63 319.625 175.1 319.786 175.518C319.947 175.937 320.18 176.27 320.487 176.517C320.796 176.761 321.173 176.883 321.621 176.883ZM331.645 177.607C331.239 177.607 330.868 177.529 330.533 177.372C330.197 177.212 329.93 176.982 329.731 176.683C329.533 176.38 329.434 176.014 329.434 175.584C329.434 175.252 329.497 174.973 329.622 174.746C329.747 174.52 329.926 174.334 330.157 174.188C330.387 174.043 330.66 173.928 330.975 173.844C331.29 173.759 331.637 173.694 332.017 173.648C332.393 173.601 332.711 173.56 332.971 173.525C333.234 173.49 333.434 173.435 333.571 173.36C333.709 173.284 333.777 173.162 333.777 172.993V172.836C333.777 172.38 333.64 172.021 333.366 171.759C333.094 171.495 332.703 171.362 332.192 171.362C331.708 171.362 331.312 171.469 331.005 171.681C330.702 171.893 330.488 172.143 330.366 172.431L329.626 172.165C329.778 171.798 329.988 171.506 330.256 171.288C330.525 171.067 330.826 170.909 331.159 170.813C331.492 170.714 331.828 170.665 332.17 170.665C332.426 170.665 332.694 170.698 332.971 170.765C333.251 170.832 333.511 170.948 333.751 171.114C333.99 171.277 334.185 171.505 334.333 171.798C334.482 172.089 334.556 172.458 334.556 172.906V177.455H333.777V176.395H333.728C333.636 176.593 333.497 176.784 333.313 176.971C333.129 177.157 332.899 177.309 332.621 177.428C332.344 177.548 332.018 177.607 331.645 177.607ZM331.75 176.896C332.164 176.896 332.524 176.805 332.827 176.622C333.131 176.439 333.364 176.196 333.528 175.893C333.694 175.588 333.777 175.252 333.777 174.886V173.918C333.719 173.973 333.621 174.023 333.483 174.066C333.35 174.11 333.193 174.149 333.015 174.184C332.84 174.216 332.664 174.244 332.489 174.267C332.314 174.29 332.156 174.31 332.017 174.328C331.637 174.374 331.313 174.447 331.044 174.546C330.777 174.645 330.571 174.781 330.428 174.956C330.285 175.127 330.213 175.348 330.213 175.619C330.213 176.026 330.359 176.341 330.651 176.565C330.943 176.786 331.309 176.896 331.75 176.896ZM336.445 179.967V170.756H337.202V172.034H337.294C337.388 171.833 337.516 171.628 337.679 171.419C337.843 171.207 338.059 171.028 338.327 170.883C338.599 170.737 338.94 170.665 339.352 170.665C339.907 170.665 340.391 170.81 340.806 171.101C341.222 171.389 341.547 171.793 341.777 172.313C342.011 172.831 342.127 173.434 342.127 174.123C342.127 174.815 342.011 175.421 341.777 175.941C341.547 176.462 341.222 176.867 340.806 177.158C340.391 177.449 339.909 177.594 339.361 177.594C338.955 177.594 338.615 177.522 338.341 177.376C338.068 177.231 337.849 177.052 337.679 176.84C337.512 176.625 337.384 176.415 337.294 176.212H337.224V179.967H336.445ZM337.215 174.11C337.215 174.651 337.295 175.13 337.456 175.549C337.62 175.965 337.853 176.292 338.156 176.53C338.463 176.766 338.834 176.883 339.268 176.883C339.716 176.883 340.092 176.761 340.399 176.517C340.708 176.27 340.942 175.937 341.103 175.518C341.267 175.1 341.348 174.63 341.348 174.11C341.348 173.595 341.268 173.131 341.108 172.719C340.95 172.306 340.717 171.979 340.407 171.737C340.098 171.493 339.718 171.371 339.268 171.371C338.83 171.371 338.458 171.489 338.152 171.724C337.845 171.957 337.612 172.28 337.452 172.693C337.294 173.102 337.215 173.575 337.215 174.11ZM343.653 179.967V170.756H344.41V172.034H344.502C344.596 171.833 344.724 171.628 344.887 171.419C345.051 171.207 345.266 171.028 345.535 170.883C345.806 170.737 346.148 170.665 346.56 170.665C347.115 170.665 347.599 170.81 348.013 171.101C348.43 171.389 348.754 171.793 348.985 172.313C349.219 172.831 349.335 173.434 349.335 174.123C349.335 174.815 349.219 175.421 348.985 175.941C348.754 176.462 348.43 176.867 348.013 177.158C347.599 177.449 347.117 177.594 346.568 177.594C346.163 177.594 345.823 177.522 345.549 177.376C345.276 177.231 345.057 177.052 344.887 176.84C344.72 176.625 344.592 176.415 344.502 176.212H344.432V179.967H343.653ZM344.423 174.11C344.423 174.651 344.503 175.13 344.664 175.549C344.828 175.965 345.061 176.292 345.364 176.53C345.671 176.766 346.042 176.883 346.476 176.883C346.924 176.883 347.3 176.761 347.607 176.517C347.916 176.27 348.15 175.937 348.311 175.518C348.475 175.1 348.556 174.63 348.556 174.11C348.556 173.595 348.476 173.131 348.316 172.719C348.158 172.306 347.925 171.979 347.615 171.737C347.306 171.493 346.926 171.371 346.476 171.371C346.038 171.371 345.667 171.489 345.36 171.724C345.053 171.957 344.82 172.28 344.66 172.693C344.502 173.102 344.423 173.575 344.423 174.11Z" fill="#81B300"/>
<path d="M225.725 196.881V209.385H224.205V198.468H224.131L221.065 200.495V198.957L224.205 196.881H225.725ZM229.04 206.82V205.575L234.558 196.881H235.464V198.81H234.851L230.684 205.379V205.477H238.112V206.82H229.04ZM234.95 209.385V206.442V205.862V196.881H236.396V209.385H234.95ZM245.289 209.385V200.007H246.686V201.472H246.81C247.006 200.971 247.322 200.583 247.759 200.306C248.197 200.025 248.722 199.885 249.335 199.885C249.956 199.885 250.473 200.025 250.886 200.306C251.302 200.583 251.627 200.971 251.86 201.472H251.958C252.199 200.988 252.561 200.603 253.043 200.318C253.525 200.029 254.104 199.885 254.778 199.885C255.619 199.885 256.308 200.147 256.843 200.672C257.378 201.193 257.646 202.005 257.646 203.108V209.385H256.2V203.108C256.2 202.416 256.01 201.922 255.63 201.625C255.249 201.328 254.803 201.179 254.287 201.179C253.625 201.179 253.112 201.378 252.749 201.777C252.385 202.172 252.204 202.673 252.204 203.279V209.385H250.732V202.962C250.732 202.429 250.559 201.999 250.211 201.674C249.864 201.344 249.416 201.179 248.869 201.179C248.493 201.179 248.141 201.279 247.814 201.478C247.491 201.678 247.23 201.954 247.03 202.308C246.833 202.659 246.736 203.063 246.736 203.523V209.385H245.289ZM267.916 209.604C267.32 209.604 266.778 209.492 266.293 209.268C265.806 209.041 265.42 208.713 265.134 208.286C264.848 207.854 264.705 207.333 264.705 206.723C264.705 206.185 264.811 205.75 265.024 205.416C265.236 205.078 265.52 204.814 265.876 204.622C266.231 204.431 266.623 204.289 267.052 204.195C267.486 204.097 267.921 204.02 268.358 203.963C268.93 203.89 269.394 203.835 269.75 203.798C270.109 203.758 270.371 203.69 270.534 203.597C270.702 203.503 270.786 203.34 270.786 203.108V203.059C270.786 202.457 270.62 201.989 270.289 201.655C269.962 201.321 269.465 201.155 268.799 201.155C268.109 201.155 267.568 201.305 267.175 201.606C266.782 201.908 266.507 202.229 266.347 202.571L264.975 202.083C265.22 201.513 265.547 201.069 265.955 200.752C266.368 200.43 266.818 200.206 267.304 200.08C267.794 199.95 268.276 199.885 268.75 199.885C269.053 199.885 269.4 199.921 269.793 199.995C270.189 200.064 270.571 200.208 270.938 200.428C271.311 200.648 271.619 200.98 271.864 201.423C272.11 201.867 272.232 202.461 272.232 203.206V209.385H270.786V208.115H270.712C270.614 208.318 270.45 208.536 270.222 208.768C269.993 209 269.688 209.197 269.308 209.36C268.929 209.523 268.464 209.604 267.916 209.604ZM268.137 208.31C268.709 208.31 269.191 208.198 269.583 207.974C269.98 207.75 270.279 207.461 270.479 207.107C270.683 206.753 270.786 206.381 270.786 205.99V204.671C270.724 204.744 270.59 204.812 270.381 204.873C270.176 204.93 269.94 204.981 269.67 205.025C269.405 205.066 269.145 205.103 268.892 205.135C268.643 205.164 268.439 205.188 268.285 205.208C267.909 205.257 267.558 205.337 267.23 205.447C266.908 205.552 266.645 205.713 266.446 205.929C266.25 206.141 266.151 206.429 266.151 206.796C266.151 207.296 266.337 207.675 266.709 207.932C267.085 208.184 267.561 208.31 268.137 208.31ZM278.673 213.097C277.974 213.097 277.373 213.007 276.87 212.828C276.368 212.653 275.949 212.421 275.614 212.132C275.283 211.847 275.02 211.542 274.823 211.216L275.976 210.41C276.107 210.581 276.272 210.777 276.472 210.996C276.673 211.22 276.947 211.413 277.294 211.576C277.646 211.743 278.104 211.827 278.673 211.827C279.434 211.827 280.06 211.644 280.554 211.277C281.049 210.911 281.296 210.337 281.296 209.555V207.651H281.174C281.067 207.822 280.917 208.033 280.721 208.286C280.528 208.534 280.25 208.756 279.886 208.951C279.527 209.142 279.04 209.238 278.427 209.238C277.668 209.238 276.985 209.059 276.381 208.701C275.78 208.343 275.303 207.822 274.952 207.138C274.605 206.454 274.431 205.624 274.431 204.647C274.431 203.686 274.6 202.85 274.939 202.137C275.28 201.421 275.751 200.868 276.356 200.477C276.96 200.082 277.659 199.885 278.452 199.885C279.065 199.885 279.552 199.986 279.911 200.19C280.274 200.389 280.553 200.617 280.745 200.874C280.941 201.126 281.092 201.334 281.198 201.496H281.346V200.007H282.743V209.653C282.743 210.459 282.559 211.114 282.192 211.619C281.828 212.128 281.337 212.5 280.721 212.736C280.107 212.977 279.425 213.097 278.673 213.097ZM278.623 207.944C279.204 207.944 279.695 207.811 280.096 207.547C280.495 207.282 280.8 206.902 281.008 206.405C281.216 205.909 281.321 205.314 281.321 204.622C281.321 203.947 281.219 203.35 281.014 202.834C280.811 202.317 280.507 201.912 280.107 201.619C279.707 201.326 279.213 201.179 278.623 201.179C278.011 201.179 277.5 201.334 277.091 201.643C276.686 201.952 276.382 202.368 276.178 202.888C275.978 203.409 275.878 203.987 275.878 204.622C275.878 205.274 275.98 205.849 276.185 206.35C276.393 206.847 276.699 207.238 277.103 207.522C277.513 207.803 278.019 207.944 278.623 207.944ZM289.216 209.58C288.366 209.58 287.62 209.378 286.979 208.975C286.342 208.573 285.842 208.009 285.484 207.284C285.127 206.56 284.95 205.713 284.95 204.744C284.95 203.768 285.127 202.915 285.484 202.186C285.842 201.458 286.342 200.892 286.979 200.489C287.62 200.086 288.366 199.885 289.216 199.885C290.066 199.885 290.81 200.086 291.447 200.489C292.089 200.892 292.588 201.458 292.943 202.186C293.303 202.915 293.482 203.768 293.482 204.744C293.482 205.713 293.303 206.56 292.943 207.284C292.588 208.009 292.089 208.573 291.447 208.975C290.81 209.378 290.066 209.58 289.216 209.58ZM289.216 208.286C289.862 208.286 290.393 208.121 290.81 207.791C291.227 207.461 291.535 207.028 291.736 206.491C291.936 205.953 292.036 205.371 292.036 204.744C292.036 204.118 291.936 203.534 291.736 202.992C291.535 202.451 291.227 202.013 290.81 201.68C290.393 201.346 289.862 201.179 289.216 201.179C288.571 201.179 288.04 201.346 287.623 201.68C287.206 202.013 286.897 202.451 286.697 202.992C286.497 203.534 286.396 204.118 286.396 204.744C286.396 205.371 286.497 205.953 286.697 206.491C286.897 207.028 287.206 207.461 287.623 207.791C288.04 208.121 288.571 208.286 289.216 208.286Z" fill="#81B300"/>
</g>
<path d="M123.842 140.613H390.16C392.543 140.613 394.475 142.538 394.475 144.911V233.33C394.475 235.704 392.543 237.629 390.16 237.629H123.842C121.458 237.629 119.526 235.704 119.526 233.33V144.911C119.526 142.538 121.458 140.613 123.842 140.613Z" stroke="#81B300" stroke-width="0.702729"/>
<path d="M84.3857 166.402H429.613C431.996 166.402 433.928 168.327 433.928 170.7V259.119C433.928 261.493 431.996 263.418 429.613 263.418H84.3857C82.0024 263.418 80.0703 261.493 80.0703 259.119V170.7C80.0703 168.327 82.0024 166.402 84.3857 166.402Z" fill="#1C2024"/>
<path d="M84.3857 166.402H429.613C431.996 166.402 433.928 168.327 433.928 170.7V259.119C433.928 261.493 431.996 263.418 429.613 263.418H84.3857C82.0024 263.418 80.0703 261.493 80.0703 259.119V170.7C80.0703 168.327 82.0024 166.402 84.3857 166.402Z" stroke="#81B300" stroke-width="0.702729"/>
<path d="M157.747 214.91C157.747 198.971 144.774 186.051 128.772 186.051C112.77 186.051 99.7979 198.971 99.7979 214.91C99.7979 230.848 112.77 243.769 128.772 243.769C144.774 243.769 157.747 230.848 157.747 214.91Z" stroke="#81B300" stroke-width="0.702729"/>
<mask id="mask2_1588_274" style="mask-type:alpha" maskUnits="userSpaceOnUse" x="109" y="195" width="40" height="40">
<path d="M148.5 195.262H109.046V234.559H148.5V195.262Z" fill="#D9D9D9"/>
</mask>
<g mask="url(#mask2_1588_274)">
<path d="M117.266 225.994V224.735H119.921V211.314C119.921 209.173 120.594 207.272 121.94 205.613C123.286 203.954 125.015 202.94 127.129 202.57V201.811C127.129 201.356 127.289 200.97 127.608 200.652C127.927 200.333 128.314 200.174 128.769 200.174C129.225 200.174 129.614 200.333 129.935 200.652C130.256 200.97 130.417 201.356 130.417 201.811V202.586C132.531 202.945 134.261 203.954 135.607 205.613C136.952 207.272 137.625 209.173 137.625 211.314V224.735H140.281V225.994H117.266ZM128.767 230.276C128.036 230.276 127.411 230.017 126.894 229.499C126.376 228.981 126.117 228.359 126.117 227.632H131.429C131.429 228.364 131.168 228.988 130.647 229.503C130.126 230.019 129.499 230.276 128.767 230.276ZM121.186 224.735H136.361V211.314C136.361 209.226 135.62 207.444 134.14 205.969C132.659 204.495 130.87 203.757 128.773 203.757C126.676 203.757 124.887 204.495 123.407 205.969C121.926 207.444 121.186 209.226 121.186 211.314V224.735Z" fill="#81B300"/>
</g>
<path d="M237.711 203.383C237.159 203.383 236.676 203.238 236.261 202.947C235.847 202.656 235.523 202.251 235.29 201.73C235.059 201.21 234.943 200.604 234.943 199.912C234.943 199.223 235.059 198.62 235.29 198.102C235.523 197.582 235.848 197.178 236.266 196.89C236.683 196.599 237.17 196.454 237.724 196.454C238.133 196.454 238.473 196.526 238.745 196.672C239.016 196.814 239.233 196.992 239.397 197.204C239.56 197.416 239.687 197.622 239.778 197.823H239.848V194.312H240.631V203.244H239.869V202.001H239.778C239.687 202.204 239.558 202.414 239.392 202.629C239.225 202.841 239.006 203.02 238.731 203.165C238.46 203.311 238.119 203.383 237.711 203.383ZM237.803 202.672C238.238 202.672 238.609 202.555 238.915 202.319C239.222 202.081 239.455 201.754 239.615 201.338C239.779 200.919 239.86 200.44 239.86 199.899C239.86 199.364 239.78 198.891 239.62 198.482C239.46 198.069 239.225 197.746 238.92 197.513C238.613 197.278 238.24 197.16 237.803 197.16C237.354 197.16 236.974 197.282 236.665 197.527C236.358 197.768 236.125 198.095 235.964 198.508C235.806 198.92 235.728 199.384 235.728 199.899C235.728 200.419 235.808 200.889 235.968 201.307C236.129 201.726 236.363 202.059 236.67 202.306C236.978 202.55 237.356 202.672 237.803 202.672ZM245.385 203.383C244.758 203.383 244.215 203.238 243.757 202.947C243.298 202.653 242.944 202.248 242.692 201.73C242.445 201.21 242.32 200.611 242.32 199.934C242.32 199.259 242.445 198.66 242.692 198.137C242.944 197.611 243.289 197.199 243.731 196.903C244.175 196.603 244.686 196.454 245.267 196.454C245.632 196.454 245.983 196.521 246.322 196.654C246.661 196.785 246.965 196.987 247.233 197.26C247.505 197.531 247.719 197.872 247.877 198.285C248.034 198.695 248.113 199.181 248.113 199.742V200.126H242.859V199.441H247.316C247.316 199.011 247.229 198.624 247.053 198.281C246.881 197.935 246.64 197.662 246.331 197.461C246.024 197.26 245.67 197.16 245.267 197.16C244.84 197.16 244.465 197.274 244.141 197.5C243.818 197.727 243.564 198.027 243.38 198.399C243.199 198.771 243.107 199.178 243.104 199.62V200.03C243.104 200.562 243.196 201.027 243.38 201.425C243.567 201.82 243.83 202.127 244.172 202.345C244.514 202.563 244.918 202.672 245.385 202.672C245.703 202.672 245.982 202.623 246.221 202.524C246.464 202.425 246.666 202.293 246.83 202.127C246.997 201.959 247.123 201.774 247.206 201.573L247.946 201.813C247.845 202.095 247.676 202.356 247.443 202.594C247.212 202.832 246.924 203.024 246.576 203.17C246.232 203.312 245.835 203.383 245.385 203.383ZM249.645 205.756V196.545H250.403V197.823H250.495C250.588 197.622 250.717 197.417 250.881 197.208C251.043 196.996 251.259 196.817 251.528 196.672C251.799 196.526 252.141 196.454 252.552 196.454C253.107 196.454 253.592 196.599 254.006 196.89C254.424 197.178 254.748 197.582 254.979 198.102C255.212 198.62 255.329 199.223 255.329 199.912C255.329 200.604 255.212 201.21 254.979 201.73C254.748 202.251 254.424 202.656 254.006 202.947C253.592 203.238 253.11 203.383 252.561 203.383C252.155 203.383 251.815 203.311 251.541 203.165C251.27 203.02 251.049 202.841 250.881 202.629C250.714 202.414 250.586 202.204 250.495 202.001H250.424V205.756H249.645ZM250.416 199.899C250.416 200.44 250.496 200.919 250.657 201.338C250.82 201.754 251.054 202.081 251.358 202.319C251.663 202.555 252.035 202.672 252.47 202.672C252.916 202.672 253.292 202.55 253.599 202.306C253.909 202.059 254.144 201.726 254.304 201.307C254.467 200.889 254.55 200.419 254.55 199.899C254.55 199.384 254.468 198.92 254.308 198.508C254.15 198.095 253.917 197.768 253.608 197.527C253.298 197.282 252.919 197.16 252.47 197.16C252.032 197.16 251.66 197.278 251.353 197.513C251.047 197.746 250.813 198.069 250.652 198.482C250.495 198.891 250.416 199.364 250.416 199.899ZM257.632 194.312V203.244H256.853V194.312H257.632ZM262.124 203.383C261.543 203.383 261.029 203.236 260.583 202.943C260.139 202.649 259.792 202.244 259.541 201.726C259.289 201.206 259.165 200.605 259.165 199.925C259.165 199.239 259.289 198.636 259.541 198.115C259.792 197.592 260.139 197.185 260.583 196.894C261.029 196.6 261.543 196.454 262.124 196.454C262.705 196.454 263.217 196.6 263.661 196.894C264.104 197.188 264.452 197.595 264.703 198.115C264.957 198.636 265.084 199.239 265.084 199.925C265.084 200.605 264.958 201.206 264.707 201.726C264.457 202.244 264.108 202.649 263.661 202.943C263.217 203.236 262.705 203.383 262.124 203.383ZM262.124 202.672C262.591 202.672 262.987 202.547 263.31 202.297C263.634 202.047 263.88 201.714 264.046 201.299C264.215 200.883 264.3 200.425 264.3 199.925C264.3 199.425 264.215 198.966 264.046 198.547C263.88 198.128 263.634 197.793 263.31 197.54C262.987 197.287 262.591 197.16 262.124 197.16C261.66 197.16 261.264 197.287 260.938 197.54C260.613 197.793 260.367 198.128 260.198 198.547C260.032 198.966 259.948 199.425 259.948 199.925C259.948 200.425 260.032 200.883 260.198 201.299C260.367 201.714 260.613 202.047 260.938 202.297C261.262 202.547 261.657 202.672 262.124 202.672ZM266.911 205.756C266.757 205.756 266.613 205.741 266.479 205.712C266.344 205.683 266.237 205.651 266.159 205.616L266.369 204.931C266.634 205.013 266.871 205.042 267.078 205.019C267.285 204.998 267.469 204.905 267.63 204.739C267.791 204.577 267.934 204.327 268.059 203.989L268.305 203.309L265.83 196.545H266.676L268.672 202.219H268.734L270.73 196.545H271.574L268.729 204.303C268.609 204.626 268.461 204.895 268.286 205.11C268.111 205.328 267.909 205.49 267.678 205.594C267.45 205.702 267.195 205.756 266.911 205.756ZM275.393 203.383C274.765 203.383 274.223 203.238 273.764 202.947C273.306 202.653 272.952 202.248 272.7 201.73C272.452 201.21 272.328 200.611 272.328 199.934C272.328 199.259 272.452 198.66 272.7 198.137C272.952 197.611 273.297 197.199 273.738 196.903C274.181 196.603 274.694 196.454 275.275 196.454C275.64 196.454 275.991 196.521 276.33 196.654C276.668 196.785 276.972 196.987 277.24 197.26C277.512 197.531 277.727 197.872 277.883 198.285C278.041 198.695 278.12 199.181 278.12 199.742V200.126H272.867V199.441H277.324C277.324 199.011 277.236 198.624 277.061 198.281C276.888 197.935 276.648 197.662 276.339 197.461C276.032 197.26 275.678 197.16 275.275 197.16C274.848 197.16 274.473 197.274 274.149 197.5C273.826 197.727 273.572 198.027 273.387 198.399C273.207 198.771 273.114 199.178 273.112 199.62V200.03C273.112 200.562 273.203 201.027 273.387 201.425C273.574 201.82 273.838 202.127 274.18 202.345C274.521 202.563 274.926 202.672 275.393 202.672C275.711 202.672 275.99 202.623 276.229 202.524C276.472 202.425 276.674 202.293 276.838 202.127C277.004 201.959 277.13 201.774 277.214 201.573L277.954 201.813C277.851 202.095 277.684 202.356 277.451 202.594C277.22 202.832 276.932 203.024 276.584 203.17C276.239 203.312 275.842 203.383 275.393 203.383ZM282.074 203.383C281.523 203.383 281.04 203.238 280.626 202.947C280.21 202.656 279.887 202.251 279.653 201.73C279.422 201.21 279.308 200.604 279.308 199.912C279.308 199.223 279.422 198.62 279.653 198.102C279.887 197.582 280.213 197.178 280.629 196.89C281.047 196.599 281.533 196.454 282.088 196.454C282.496 196.454 282.836 196.526 283.108 196.672C283.379 196.814 283.597 196.992 283.76 197.204C283.924 197.416 284.051 197.622 284.141 197.823H284.211V194.312H284.995V203.244H284.233V202.001H284.141C284.051 202.204 283.922 202.414 283.756 202.629C283.59 202.841 283.369 203.02 283.094 203.165C282.823 203.311 282.482 203.383 282.074 203.383ZM282.167 202.672C282.601 202.672 282.972 202.555 283.279 202.319C283.585 202.081 283.819 201.754 283.979 201.338C284.142 200.919 284.225 200.44 284.225 199.899C284.225 199.364 284.143 198.891 283.983 198.482C283.823 198.069 283.59 197.746 283.283 197.513C282.977 197.278 282.604 197.16 282.167 197.16C281.717 197.16 281.337 197.282 281.028 197.527C280.722 197.768 280.487 198.095 280.327 198.508C280.169 198.92 280.09 199.384 280.09 199.899C280.09 200.419 280.171 200.889 280.332 201.307C280.492 201.726 280.725 202.059 281.032 202.306C281.342 202.55 281.719 202.672 282.167 202.672ZM292.191 203.396C291.785 203.396 291.414 203.318 291.079 203.161C290.743 203.001 290.476 202.771 290.277 202.472C290.079 202.169 289.98 201.803 289.98 201.373C289.98 201.041 290.043 200.762 290.167 200.535C290.293 200.309 290.472 200.123 290.703 199.977C290.933 199.832 291.206 199.717 291.521 199.633C291.836 199.548 292.183 199.483 292.563 199.437C292.939 199.39 293.257 199.349 293.517 199.314C293.78 199.28 293.98 199.224 294.117 199.149C294.255 199.073 294.322 198.951 294.322 198.782V198.625C294.322 198.169 294.186 197.81 293.912 197.548C293.639 197.284 293.249 197.151 292.738 197.151C292.254 197.151 291.858 197.258 291.551 197.47C291.247 197.682 291.034 197.932 290.912 198.22L290.172 197.954C290.324 197.588 290.534 197.295 290.802 197.077C291.071 196.856 291.372 196.698 291.705 196.602C292.038 196.503 292.374 196.454 292.716 196.454C292.972 196.454 293.24 196.487 293.517 196.554C293.797 196.621 294.057 196.737 294.297 196.903C294.536 197.066 294.731 197.294 294.879 197.588C295.028 197.878 295.102 198.248 295.102 198.695V203.244H294.322V202.184H294.274C294.182 202.382 294.043 202.574 293.859 202.76C293.675 202.946 293.445 203.098 293.167 203.218C292.89 203.337 292.564 203.396 292.191 203.396ZM292.295 202.686C292.71 202.686 293.07 202.594 293.373 202.411C293.676 202.228 293.909 201.985 294.073 201.682C294.24 201.377 294.322 201.041 294.322 200.675V199.707C294.265 199.762 294.167 199.812 294.029 199.855C293.896 199.899 293.739 199.938 293.56 199.973C293.385 200.005 293.21 200.033 293.035 200.056C292.86 200.079 292.702 200.099 292.563 200.117C292.183 200.163 291.859 200.236 291.59 200.335C291.323 200.434 291.117 200.57 290.974 200.745C290.831 200.916 290.759 201.137 290.759 201.408C290.759 201.815 290.905 202.13 291.197 202.354C291.489 202.575 291.855 202.686 292.295 202.686ZM296.991 205.756V196.545H297.748V197.823H297.84C297.934 197.622 298.062 197.417 298.225 197.208C298.389 196.996 298.605 196.817 298.873 196.672C299.145 196.526 299.486 196.454 299.898 196.454C300.453 196.454 300.937 196.599 301.352 196.89C301.768 197.178 302.093 197.582 302.323 198.102C302.557 198.62 302.673 199.223 302.673 199.912C302.673 200.604 302.557 201.21 302.323 201.73C302.093 202.251 301.768 202.656 301.352 202.947C300.937 203.238 300.455 203.383 299.907 203.383C299.501 203.383 299.161 203.311 298.887 203.165C298.614 203.02 298.395 202.841 298.225 202.629C298.058 202.414 297.93 202.204 297.84 202.001H297.77V205.756H296.991ZM297.761 199.899C297.761 200.44 297.841 200.919 298.002 201.338C298.166 201.754 298.399 202.081 298.702 202.319C299.009 202.555 299.38 202.672 299.814 202.672C300.262 202.672 300.638 202.55 300.945 202.306C301.254 202.059 301.488 201.726 301.649 201.307C301.813 200.889 301.894 200.419 301.894 199.899C301.894 199.384 301.814 198.92 301.654 198.508C301.496 198.095 301.263 197.768 300.953 197.527C300.644 197.282 300.264 197.16 299.814 197.16C299.376 197.16 299.004 197.278 298.698 197.513C298.391 197.746 298.158 198.069 297.998 198.482C297.84 198.891 297.761 199.364 297.761 199.899ZM304.198 205.756V196.545H304.955V197.823H305.048C305.142 197.622 305.27 197.417 305.433 197.208C305.597 196.996 305.812 196.817 306.081 196.672C306.352 196.526 306.694 196.454 307.106 196.454C307.661 196.454 308.145 196.599 308.559 196.89C308.976 197.178 309.3 197.582 309.531 198.102C309.765 198.62 309.881 199.223 309.881 199.912C309.881 200.604 309.765 201.21 309.531 201.73C309.3 202.251 308.976 202.656 308.559 202.947C308.145 203.238 307.663 203.383 307.114 203.383C306.709 203.383 306.368 203.311 306.095 203.165C305.822 203.02 305.603 202.841 305.433 202.629C305.266 202.414 305.138 202.204 305.048 202.001H304.978V205.756H304.198ZM304.969 199.899C304.969 200.44 305.049 200.919 305.209 201.338C305.373 201.754 305.606 202.081 305.91 202.319C306.217 202.555 306.588 202.672 307.022 202.672C307.469 202.672 307.846 202.55 308.153 202.306C308.462 202.059 308.696 201.726 308.857 201.307C309.021 200.889 309.102 200.419 309.102 199.899C309.102 199.384 309.022 198.92 308.861 198.508C308.704 198.095 308.471 197.768 308.161 197.527C307.852 197.282 307.472 197.16 307.022 197.16C306.584 197.16 306.213 197.278 305.906 197.513C305.599 197.746 305.366 198.069 305.206 198.482C305.048 198.891 304.969 199.364 304.969 199.899Z" fill="#81B300"/>
<path d="M186.27 222.67V235.174H184.749V224.257H184.675L181.61 226.284V224.746L184.749 222.67H186.27ZM189.585 232.609V231.364L195.103 222.67H196.009V224.599H195.396L191.229 231.168V231.266H198.657V232.609H189.585ZM195.495 235.174V232.231V231.651V222.67H196.941V235.174H195.495ZM205.834 235.174V225.796H207.231V227.261H207.354C207.55 226.76 207.867 226.372 208.304 226.095C208.742 225.814 209.267 225.674 209.88 225.674C210.501 225.674 211.018 225.814 211.431 226.095C211.847 226.372 212.172 226.76 212.405 227.261H212.503C212.744 226.777 213.106 226.392 213.588 226.107C214.07 225.818 214.649 225.674 215.323 225.674C216.164 225.674 216.853 225.936 217.388 226.461C217.923 226.982 218.191 227.794 218.191 228.897V235.174H216.745V228.897C216.745 228.205 216.555 227.711 216.175 227.414C215.794 227.117 215.348 226.968 214.832 226.968C214.17 226.968 213.657 227.167 213.294 227.566C212.93 227.961 212.749 228.462 212.749 229.068V235.174H211.276V228.751C211.276 228.218 211.104 227.788 210.756 227.463C210.408 227.133 209.961 226.968 209.413 226.968C209.037 226.968 208.686 227.068 208.359 227.267C208.036 227.467 207.775 227.743 207.575 228.097C207.378 228.448 207.28 228.852 207.28 229.313V235.174H205.834ZM228.461 235.393C227.865 235.393 227.323 235.281 226.838 235.058C226.351 234.83 225.965 234.502 225.679 234.075C225.393 233.643 225.25 233.122 225.25 232.512C225.25 231.974 225.356 231.539 225.569 231.205C225.781 230.867 226.065 230.603 226.421 230.411C226.776 230.22 227.168 230.078 227.597 229.984C228.031 229.886 228.466 229.809 228.903 229.752C229.475 229.679 229.938 229.624 230.295 229.587C230.654 229.547 230.916 229.479 231.079 229.386C231.247 229.292 231.33 229.129 231.33 228.897V228.848C231.33 228.246 231.165 227.778 230.834 227.444C230.507 227.111 230.01 226.944 229.344 226.944C228.654 226.944 228.112 227.094 227.72 227.395C227.327 227.697 227.052 228.018 226.892 228.36L225.52 227.872C225.765 227.302 226.092 226.858 226.5 226.541C226.913 226.219 227.363 225.995 227.849 225.869C228.339 225.739 228.821 225.674 229.295 225.674C229.598 225.674 229.945 225.71 230.338 225.784C230.734 225.853 231.116 225.997 231.483 226.217C231.856 226.437 232.164 226.769 232.409 227.212C232.655 227.656 232.777 228.25 232.777 228.995V235.174H231.33V233.904H231.257C231.159 234.107 230.995 234.325 230.767 234.557C230.538 234.789 230.233 234.986 229.853 235.149C229.474 235.312 229.009 235.393 228.461 235.393ZM228.682 234.099C229.254 234.099 229.736 233.987 230.128 233.763C230.525 233.539 230.824 233.25 231.023 232.896C231.228 232.542 231.33 232.17 231.33 231.779V230.46C231.269 230.534 231.134 230.601 230.926 230.662C230.721 230.719 230.485 230.77 230.215 230.814C229.95 230.855 229.689 230.892 229.437 230.924C229.188 230.953 228.984 230.977 228.83 230.998C228.454 231.046 228.103 231.126 227.775 231.236C227.453 231.341 227.19 231.502 226.99 231.718C226.794 231.93 226.696 232.219 226.696 232.585C226.696 233.086 226.882 233.464 227.254 233.721C227.63 233.973 228.106 234.099 228.682 234.099ZM239.218 238.886C238.519 238.886 237.918 238.796 237.415 238.617C236.913 238.442 236.494 238.21 236.159 237.921C235.828 237.636 235.564 237.331 235.368 237.005L236.521 236.199C236.652 236.37 236.817 236.566 237.017 236.785C237.218 237.009 237.492 237.203 237.839 237.365C238.191 237.532 238.649 237.616 239.218 237.616C239.978 237.616 240.605 237.433 241.099 237.066C241.594 236.7 241.841 236.126 241.841 235.345V233.44H241.719C241.612 233.611 241.462 233.822 241.266 234.075C241.073 234.323 240.795 234.545 240.431 234.74C240.072 234.931 239.585 235.027 238.972 235.027C238.213 235.027 237.53 234.848 236.926 234.49C236.325 234.132 235.848 233.611 235.497 232.927C235.15 232.243 234.976 231.413 234.976 230.436C234.976 229.475 235.145 228.639 235.484 227.927C235.825 227.21 236.296 226.657 236.901 226.266C237.505 225.871 238.204 225.674 238.997 225.674C239.61 225.674 240.097 225.776 240.456 225.979C240.819 226.178 241.098 226.406 241.29 226.663C241.486 226.915 241.637 227.123 241.743 227.286H241.891V225.796H243.288V235.442C243.288 236.248 243.104 236.903 242.737 237.408C242.373 237.917 241.882 238.289 241.266 238.525C240.652 238.766 239.97 238.886 239.218 238.886ZM239.168 233.733C239.749 233.733 240.24 233.6 240.641 233.336C241.04 233.071 241.345 232.691 241.553 232.194C241.761 231.698 241.866 231.103 241.866 230.411C241.866 229.736 241.764 229.139 241.559 228.623C241.356 228.106 241.052 227.701 240.652 227.408C240.252 227.115 239.758 226.968 239.168 226.968C238.556 226.968 238.045 227.123 237.636 227.432C237.231 227.741 236.927 228.157 236.723 228.677C236.522 229.199 236.423 229.776 236.423 230.411C236.423 231.063 236.525 231.639 236.73 232.139C236.938 232.636 237.244 233.027 237.648 233.312C238.057 233.592 238.564 233.733 239.168 233.733ZM249.761 235.369C248.911 235.369 248.165 235.167 247.524 234.765C246.887 234.362 246.387 233.798 246.029 233.073C245.672 232.349 245.495 231.502 245.495 230.534C245.495 229.557 245.672 228.704 246.029 227.975C246.387 227.247 246.887 226.681 247.524 226.278C248.165 225.875 248.911 225.674 249.761 225.674C250.611 225.674 251.355 225.875 251.992 226.278C252.633 226.681 253.133 227.247 253.488 227.975C253.848 228.704 254.027 229.557 254.027 230.534C254.027 231.502 253.848 232.349 253.488 233.073C253.133 233.798 252.633 234.362 251.992 234.765C251.355 235.167 250.611 235.369 249.761 235.369ZM249.761 234.075C250.407 234.075 250.938 233.91 251.355 233.58C251.772 233.25 252.08 232.817 252.281 232.28C252.481 231.742 252.58 231.16 252.58 230.534C252.58 229.907 252.481 229.323 252.281 228.781C252.08 228.24 251.772 227.802 251.355 227.469C250.938 227.135 250.407 226.968 249.761 226.968C249.116 226.968 248.584 227.135 248.168 227.469C247.751 227.802 247.441 228.24 247.242 228.781C247.042 229.323 246.941 229.907 246.941 230.534C246.941 231.16 247.042 231.742 247.242 232.28C247.441 232.817 247.751 233.25 248.168 233.58C248.584 233.91 249.116 234.075 249.761 234.075Z" fill="#81B300"/>
<path d="M44.9325 193.42H469.069C471.452 193.42 473.384 195.344 473.384 197.718V286.137C473.384 288.511 471.452 290.435 469.069 290.435H44.9325C42.5492 290.435 40.6172 288.511 40.6172 286.137V197.718C40.6172 195.344 42.5492 193.42 44.9325 193.42Z" fill="#1C2024"/>
<path d="M44.9325 193.42H469.069C471.452 193.42 473.384 195.344 473.384 197.718V286.137C473.384 288.511 471.452 290.435 469.069 290.435H44.9325C42.5492 290.435 40.6172 288.511 40.6172 286.137V197.718C40.6172 195.344 42.5492 193.42 44.9325 193.42Z" stroke="#81B300" stroke-width="0.702729"/>
<path d="M118.293 241.927C118.293 225.989 105.32 213.068 89.3182 213.068C73.316 213.068 60.3438 225.989 60.3438 241.927C60.3438 257.866 73.316 270.786 89.3182 270.786C105.32 270.786 118.293 257.866 118.293 241.927Z" stroke="#81B300" stroke-width="0.702729"/>
<mask id="mask3_1588_274" style="mask-type:alpha" maskUnits="userSpaceOnUse" x="69" y="222" width="41" height="40">
<path d="M109.045 222.279H69.5908V261.577H109.045V222.279Z" fill="#D9D9D9"/>
</mask>
<g mask="url(#mask3_1588_274)">
<path d="M77.8115 253.012V251.752H80.4673V238.332C80.4673 236.19 81.1401 234.29 82.4857 232.63C83.8314 230.971 85.5613 229.957 87.6752 229.588V228.829C87.6752 228.374 87.8346 227.987 88.1535 227.669C88.4725 227.351 88.8598 227.191 89.3154 227.191C89.7711 227.191 90.1596 227.351 90.481 227.669C90.8023 227.987 90.9631 228.374 90.9631 228.829V229.603C93.0769 229.962 94.8067 230.971 96.1526 232.63C97.4981 234.29 98.1709 236.19 98.1709 238.332V251.752H100.827V253.012H77.8115ZM89.3134 257.294C88.5815 257.294 87.9569 257.035 87.4397 256.517C86.9221 255.999 86.6633 255.376 86.6633 254.649H91.9748C91.9748 255.382 91.7142 256.006 91.1928 256.521C90.6716 257.036 90.0451 257.294 89.3134 257.294ZM81.7315 251.752H96.9067V238.332C96.9067 236.243 96.1664 234.462 94.6857 232.987C93.2051 231.512 91.4162 230.775 89.3191 230.775C87.2219 230.775 85.433 231.512 83.9525 232.987C82.4718 234.462 81.7315 236.243 81.7315 238.332V251.752Z" fill="#81B300"/>
</g>
<path d="M148.003 235.452C146.9 235.452 145.933 235.161 145.104 234.58C144.276 233.999 143.627 233.187 143.16 232.147C142.699 231.106 142.469 229.893 142.469 228.51C142.469 227.131 142.699 225.925 143.16 224.89C143.627 223.849 144.278 223.041 145.113 222.465C145.948 221.884 146.92 221.593 148.029 221.593C148.847 221.593 149.527 221.738 150.07 222.029C150.613 222.314 151.047 222.669 151.374 223.093C151.701 223.518 151.955 223.931 152.136 224.332H152.276V217.311H153.844V235.173H152.32V232.687H152.136C151.955 233.094 151.698 233.513 151.366 233.943C151.033 234.368 150.592 234.725 150.043 235.016C149.5 235.307 148.82 235.452 148.003 235.452ZM148.187 234.03C149.057 234.03 149.798 233.795 150.411 233.324C151.024 232.847 151.491 232.193 151.812 231.362C152.139 230.524 152.303 229.565 152.303 228.483C152.303 227.413 152.142 226.469 151.821 225.649C151.5 224.823 151.033 224.178 150.42 223.712C149.807 223.241 149.063 223.006 148.187 223.006C147.288 223.006 146.529 223.25 145.91 223.739C145.297 224.221 144.83 224.875 144.509 225.701C144.194 226.527 144.036 227.454 144.036 228.483C144.036 229.524 144.197 230.463 144.518 231.301C144.839 232.138 145.306 232.804 145.919 233.298C146.538 233.786 147.294 234.03 148.187 234.03ZM163.351 235.452C162.096 235.452 161.011 235.161 160.094 234.58C159.177 233.993 158.468 233.182 157.966 232.147C157.47 231.106 157.222 229.908 157.222 228.553C157.222 227.204 157.47 226.006 157.966 224.96C158.468 223.907 159.16 223.084 160.041 222.491C160.929 221.892 161.953 221.593 163.115 221.593C163.844 221.593 164.549 221.727 165.225 221.994C165.902 222.256 166.51 222.66 167.046 223.207C167.59 223.747 168.019 224.431 168.334 225.256C168.649 226.076 168.807 227.047 168.807 228.169V228.937H158.299V227.568H167.213C167.213 226.707 167.038 225.934 166.688 225.248C166.344 224.556 165.862 224.009 165.243 223.608C164.63 223.207 163.921 223.006 163.115 223.006C162.263 223.006 161.513 223.233 160.865 223.686C160.217 224.14 159.709 224.739 159.341 225.483C158.979 226.227 158.795 227.041 158.789 227.925V228.745C158.789 229.809 158.973 230.739 159.341 231.536C159.715 232.327 160.243 232.94 160.926 233.376C161.609 233.812 162.417 234.03 163.351 234.03C163.988 234.03 164.545 233.932 165.024 233.734C165.509 233.536 165.915 233.272 166.241 232.94C166.574 232.603 166.825 232.234 166.995 231.833L168.474 232.312C168.27 232.876 167.934 233.397 167.467 233.874C167.006 234.35 166.428 234.734 165.733 235.025C165.044 235.31 164.25 235.452 163.351 235.452ZM171.872 240.197V221.776H173.386V224.332H173.571C173.757 223.931 174.014 223.521 174.342 223.102C174.669 222.677 175.1 222.32 175.638 222.029C176.18 221.738 176.863 221.593 177.687 221.593C178.795 221.593 179.764 221.884 180.594 222.465C181.429 223.041 182.076 223.849 182.537 224.89C183.005 225.925 183.239 227.131 183.239 228.51C183.239 229.893 183.005 231.106 182.537 232.147C182.076 233.187 181.429 233.999 180.594 234.58C179.764 235.161 178.801 235.452 177.704 235.452C176.893 235.452 176.212 235.307 175.664 235.016C175.121 234.725 174.68 234.368 174.342 233.943C174.009 233.513 173.751 233.094 173.571 232.687H173.431V240.197H171.872ZM173.413 228.483C173.413 229.565 173.574 230.524 173.894 231.362C174.222 232.193 174.688 232.847 175.296 233.324C175.909 233.795 176.65 234.03 177.52 234.03C178.413 234.03 179.166 233.786 179.779 233.298C180.398 232.804 180.868 232.138 181.19 231.301C181.516 230.463 181.679 229.524 181.679 228.483C181.679 227.454 181.519 226.527 181.198 225.701C180.883 224.875 180.415 224.221 179.796 223.739C179.178 223.25 178.419 223.006 177.52 223.006C176.644 223.006 175.9 223.241 175.288 223.712C174.674 224.178 174.207 224.823 173.886 225.649C173.571 226.469 173.413 227.413 173.413 228.483ZM187.846 217.311V235.173H186.288V217.311H187.846ZM196.828 235.452C195.667 235.452 194.64 235.159 193.746 234.571C192.86 233.984 192.164 233.173 191.662 232.138C191.161 231.097 190.909 229.896 190.909 228.536C190.909 227.163 191.161 225.957 191.662 224.916C192.164 223.87 192.86 223.055 193.746 222.474C194.64 221.887 195.667 221.593 196.828 221.593C197.991 221.593 199.016 221.887 199.902 222.474C200.79 223.061 201.484 223.875 201.987 224.916C202.495 225.957 202.749 227.163 202.749 228.536C202.749 229.896 202.498 231.097 201.996 232.138C201.494 233.173 200.796 233.984 199.902 234.571C199.016 235.159 197.991 235.452 196.828 235.452ZM196.828 234.03C197.763 234.03 198.555 233.78 199.202 233.28C199.85 232.78 200.34 232.115 200.673 231.283C201.012 230.452 201.181 229.536 201.181 228.536C201.181 227.536 201.012 226.617 200.673 225.78C200.34 224.942 199.85 224.271 199.202 223.765C198.555 223.259 197.763 223.006 196.828 223.006C195.901 223.006 195.11 223.259 194.456 223.765C193.808 224.271 193.315 224.942 192.975 225.78C192.643 226.617 192.477 227.536 192.477 228.536C192.477 229.536 192.643 230.452 192.975 231.283C193.315 232.115 193.808 232.78 194.456 233.28C195.104 233.78 195.895 234.03 196.828 234.03ZM206.405 240.197C206.095 240.197 205.806 240.168 205.538 240.11C205.269 240.051 205.056 239.988 204.898 239.918L205.319 238.548C205.85 238.711 206.322 238.769 206.738 238.723C207.152 238.682 207.519 238.496 207.841 238.165C208.162 237.839 208.448 237.339 208.699 236.664L209.189 235.304L204.242 221.776H205.931L209.925 233.123H210.047L214.041 221.776H215.731L210.038 237.292C209.799 237.938 209.504 238.476 209.154 238.906C208.804 239.342 208.399 239.665 207.937 239.874C207.481 240.089 206.971 240.197 206.405 240.197ZM223.367 235.452C222.111 235.452 221.025 235.161 220.109 234.58C219.193 233.993 218.483 233.182 217.981 232.147C217.485 231.106 217.236 229.908 217.236 228.553C217.236 227.204 217.485 226.006 217.981 224.96C218.483 223.907 219.175 223.084 220.056 222.491C220.944 221.892 221.968 221.593 223.13 221.593C223.86 221.593 224.564 221.727 225.241 221.994C225.918 222.256 226.525 222.66 227.062 223.207C227.604 223.747 228.033 224.431 228.349 225.256C228.665 226.076 228.822 227.047 228.822 228.169V228.937H218.314V227.568H227.228C227.228 226.707 227.053 225.934 226.703 225.248C226.359 224.556 225.877 224.009 225.258 223.608C224.645 223.207 223.936 223.006 223.13 223.006C222.278 223.006 221.527 223.233 220.88 223.686C220.231 224.14 219.723 224.739 219.356 225.483C218.995 226.227 218.81 227.041 218.805 227.925V228.745C218.805 229.809 218.988 230.739 219.356 231.536C219.729 232.327 220.258 232.94 220.941 233.376C221.624 233.812 222.432 234.03 223.367 234.03C224.003 234.03 224.56 233.932 225.038 233.734C225.523 233.536 225.93 233.272 226.257 232.94C226.59 232.603 226.84 232.234 227.009 231.833L228.49 232.312C228.285 232.876 227.949 233.397 227.482 233.874C227.021 234.35 226.443 234.734 225.749 235.025C225.059 235.31 224.265 235.452 223.367 235.452ZM236.729 235.452C235.626 235.452 234.66 235.161 233.831 234.58C233.002 233.999 232.354 233.187 231.888 232.147C231.425 231.106 231.195 229.893 231.195 228.51C231.195 227.131 231.425 225.925 231.888 224.89C232.354 223.849 233.005 223.041 233.839 222.465C234.674 221.884 235.647 221.593 236.755 221.593C237.573 221.593 238.253 221.738 238.796 222.029C239.34 222.314 239.774 222.669 240.1 223.093C240.428 223.518 240.682 223.931 240.862 224.332H241.003V217.311H242.57V235.173H241.047V232.687H240.862C240.682 233.094 240.425 233.513 240.092 233.943C239.759 234.368 239.319 234.725 238.77 235.016C238.227 235.307 237.547 235.452 236.729 235.452ZM236.913 234.03C237.784 234.03 238.525 233.795 239.137 233.324C239.75 232.847 240.217 232.193 240.539 231.362C240.866 230.524 241.029 229.565 241.029 228.483C241.029 227.413 240.868 226.469 240.548 225.649C240.226 224.823 239.759 224.178 239.146 223.712C238.533 223.241 237.788 223.006 236.913 223.006C236.014 223.006 235.256 223.25 234.637 223.739C234.023 224.221 233.557 224.875 233.235 225.701C232.921 226.527 232.763 227.454 232.763 228.483C232.763 229.524 232.923 230.463 233.244 231.301C233.566 232.138 234.033 232.804 234.646 233.298C235.265 233.786 236.02 234.03 236.913 234.03ZM256.962 235.478C256.151 235.478 255.41 235.321 254.738 235.007C254.067 234.687 253.532 234.228 253.135 233.629C252.738 233.025 252.54 232.292 252.54 231.431C252.54 230.769 252.665 230.21 252.917 229.757C253.167 229.303 253.523 228.931 253.985 228.64C254.446 228.35 254.992 228.12 255.622 227.951C256.253 227.783 256.947 227.652 257.707 227.559C258.46 227.466 259.096 227.384 259.615 227.315C260.141 227.245 260.54 227.134 260.815 226.983C261.09 226.832 261.227 226.588 261.227 226.251V225.937C261.227 225.024 260.952 224.306 260.403 223.782C259.861 223.253 259.078 222.989 258.057 222.989C257.088 222.989 256.296 223.201 255.684 223.625C255.077 224.05 254.65 224.55 254.405 225.125L252.925 224.593C253.229 223.861 253.649 223.276 254.187 222.84C254.723 222.398 255.325 222.081 255.991 221.89C256.655 221.692 257.33 221.593 258.013 221.593C258.527 221.593 259.061 221.66 259.615 221.794C260.176 221.927 260.696 222.16 261.174 222.491C261.652 222.817 262.041 223.273 262.339 223.861C262.636 224.442 262.785 225.181 262.785 226.076V235.173H261.227V233.054H261.131C260.943 233.449 260.666 233.833 260.299 234.205C259.931 234.577 259.47 234.882 258.915 235.121C258.36 235.359 257.709 235.478 256.962 235.478ZM257.172 234.057C258.002 234.057 258.719 233.874 259.327 233.507C259.934 233.141 260.401 232.655 260.728 232.051C261.06 231.44 261.227 230.769 261.227 230.036V228.1C261.11 228.21 260.915 228.309 260.64 228.396C260.371 228.483 260.059 228.562 259.703 228.632C259.353 228.696 259.003 228.751 258.653 228.797C258.302 228.844 257.987 228.885 257.707 228.919C256.947 229.012 256.3 229.158 255.762 229.356C255.225 229.553 254.814 229.826 254.528 230.175C254.242 230.518 254.099 230.96 254.099 231.501C254.099 232.315 254.39 232.946 254.975 233.394C255.558 233.836 256.291 234.057 257.172 234.057ZM266.562 240.197V221.776H268.077V224.332H268.261C268.447 223.931 268.705 223.521 269.032 223.102C269.358 222.677 269.79 222.32 270.327 222.029C270.87 221.738 271.553 221.593 272.377 221.593C273.486 221.593 274.454 221.884 275.284 222.465C276.119 223.041 276.766 223.849 277.228 224.89C277.694 225.925 277.929 227.131 277.929 228.51C277.929 229.893 277.694 231.106 277.228 232.147C276.766 233.187 276.119 233.999 275.284 234.58C274.454 235.161 273.491 235.452 272.394 235.452C271.583 235.452 270.902 235.307 270.353 235.016C269.811 234.725 269.369 234.368 269.032 233.943C268.699 233.513 268.442 233.094 268.261 232.687H268.12V240.197H266.562ZM268.103 228.483C268.103 229.565 268.263 230.524 268.585 231.362C268.912 232.193 269.379 232.847 269.986 233.324C270.599 233.795 271.34 234.03 272.21 234.03C273.103 234.03 273.856 233.786 274.469 233.298C275.088 232.804 275.558 232.138 275.879 231.301C276.206 230.463 276.37 229.524 276.37 228.483C276.37 227.454 276.209 226.527 275.888 225.701C275.572 224.875 275.105 224.221 274.487 223.739C273.868 223.25 273.109 223.006 272.21 223.006C271.335 223.006 270.59 223.241 269.977 223.712C269.364 224.178 268.897 224.823 268.575 225.649C268.261 226.469 268.103 227.413 268.103 228.483ZM280.978 240.197V221.776H282.493V224.332H282.677C282.864 223.931 283.12 223.521 283.447 223.102C283.774 222.677 284.207 222.32 284.743 222.029C285.286 221.738 285.969 221.593 286.792 221.593C287.902 221.593 288.871 221.884 289.7 222.465C290.534 223.041 291.183 223.849 291.644 224.89C292.111 225.925 292.344 227.131 292.344 228.51C292.344 229.893 292.111 231.106 291.644 232.147C291.183 233.187 290.534 233.999 289.7 234.58C288.871 235.161 287.907 235.452 286.809 235.452C285.998 235.452 285.319 235.307 284.769 235.016C284.226 234.725 283.786 234.368 283.447 233.943C283.114 233.513 282.858 233.094 282.677 232.687H282.536V240.197H280.978ZM282.519 228.483C282.519 229.565 282.679 230.524 283.001 231.362C283.328 232.193 283.795 232.847 284.402 233.324C285.014 233.795 285.757 234.03 286.626 234.03C287.52 234.03 288.272 233.786 288.886 233.298C289.503 232.804 289.974 232.138 290.295 231.301C290.622 230.463 290.786 229.524 290.786 228.483C290.786 227.454 290.624 226.527 290.304 225.701C289.988 224.875 289.522 224.221 288.903 223.739C288.284 223.25 287.525 223.006 286.626 223.006C285.75 223.006 285.006 223.241 284.393 223.712C283.78 224.178 283.313 224.823 282.992 225.649C282.677 226.469 282.519 227.413 282.519 228.483Z" fill="#81B300"/>
<path d="M146.816 254.6V267.103H145.296V256.187H145.222L142.157 258.214V256.675L145.296 254.6H146.816ZM150.132 264.539V263.294L155.649 254.6H156.556V256.529H155.943L151.775 263.099V263.196H159.204V264.539H150.132ZM156.041 267.103V264.161V263.58V254.6H157.488V267.103H156.041ZM161.526 267.103V257.725H162.923V259.191H163.046C163.242 258.69 163.559 258.301 163.996 258.025C164.433 257.744 164.958 257.603 165.571 257.603C166.192 257.603 166.709 257.744 167.122 258.025C167.539 258.301 167.864 258.69 168.097 259.191H168.195C168.436 258.706 168.798 258.322 169.28 258.037C169.762 257.748 170.34 257.603 171.014 257.603C171.857 257.603 172.544 257.866 173.081 258.391C173.616 258.912 173.883 259.724 173.883 260.827V267.103H172.437V260.827C172.437 260.135 172.246 259.641 171.866 259.343C171.487 259.046 171.039 258.898 170.524 258.898C169.862 258.898 169.35 259.097 168.986 259.496C168.622 259.891 168.44 260.392 168.44 260.998V267.103H166.969V260.68C166.969 260.147 166.795 259.718 166.448 259.392C166.101 259.063 165.654 258.898 165.106 258.898C164.73 258.898 164.379 258.997 164.051 259.197C163.729 259.396 163.466 259.673 163.267 260.027C163.07 260.377 162.972 260.782 162.972 261.242V267.103H161.526ZM184.154 267.323C183.557 267.323 183.016 267.211 182.529 266.988C182.043 266.759 181.657 266.432 181.371 266.004C181.085 265.573 180.942 265.052 180.942 264.441C180.942 263.904 181.048 263.468 181.26 263.134C181.472 262.797 181.757 262.532 182.112 262.341C182.469 262.15 182.861 262.007 183.29 261.914C183.722 261.816 184.158 261.739 184.595 261.682C185.167 261.609 185.631 261.554 185.986 261.517C186.346 261.476 186.608 261.409 186.772 261.315C186.938 261.222 187.022 261.059 187.022 260.827V260.778C187.022 260.176 186.857 259.708 186.526 259.374C186.199 259.04 185.703 258.873 185.037 258.873C184.346 258.873 183.804 259.024 183.412 259.325C183.02 259.626 182.743 259.948 182.584 260.29L181.211 259.801C181.456 259.232 181.783 258.788 182.192 258.47C182.605 258.149 183.054 257.925 183.541 257.799C184.031 257.668 184.513 257.603 184.987 257.603C185.29 257.603 185.637 257.64 186.029 257.713C186.426 257.782 186.807 257.927 187.176 258.147C187.547 258.367 187.857 258.698 188.101 259.142C188.346 259.586 188.469 260.18 188.469 260.925V267.103H187.022V265.833H186.949C186.85 266.037 186.688 266.255 186.458 266.487C186.229 266.719 185.926 266.917 185.545 267.079C185.165 267.242 184.701 267.323 184.154 267.323ZM184.375 266.029C184.947 266.029 185.429 265.917 185.821 265.693C186.217 265.469 186.515 265.18 186.716 264.826C186.921 264.472 187.022 264.099 187.022 263.709V262.39C186.961 262.463 186.826 262.53 186.617 262.591C186.414 262.648 186.176 262.699 185.907 262.744C185.641 262.785 185.382 262.821 185.128 262.854C184.879 262.883 184.677 262.907 184.521 262.927C184.145 262.976 183.794 263.056 183.467 263.165C183.144 263.271 182.883 263.431 182.683 263.648C182.486 263.859 182.388 264.149 182.388 264.515C182.388 265.016 182.575 265.394 182.946 265.651C183.322 265.902 183.798 266.029 184.375 266.029ZM194.91 270.816C194.211 270.816 193.611 270.726 193.108 270.547C192.605 270.371 192.187 270.14 191.851 269.85C191.52 269.565 191.257 269.261 191.06 268.934L192.213 268.129C192.343 268.299 192.508 268.496 192.709 268.714C192.909 268.939 193.183 269.132 193.531 269.295C193.882 269.462 194.342 269.546 194.91 269.546C195.67 269.546 196.297 269.362 196.792 268.996C197.286 268.63 197.533 268.056 197.533 267.274V265.369H197.411C197.305 265.54 197.153 265.752 196.957 266.004C196.765 266.252 196.487 266.475 196.124 266.67C195.763 266.861 195.278 266.957 194.665 266.957C193.904 266.957 193.222 266.778 192.617 266.419C192.017 266.062 191.541 265.54 191.189 264.856C190.842 264.173 190.668 263.342 190.668 262.365C190.668 261.405 190.838 260.569 191.177 259.856C191.516 259.14 191.988 258.586 192.592 258.196C193.198 257.801 193.897 257.603 194.69 257.603C195.302 257.603 195.788 257.705 196.148 257.909C196.512 258.108 196.789 258.336 196.982 258.592C197.178 258.845 197.329 259.052 197.435 259.215H197.582V257.725H198.98V267.372C198.98 268.178 198.797 268.834 198.428 269.338C198.064 269.847 197.575 270.219 196.957 270.455C196.344 270.695 195.661 270.816 194.91 270.816ZM194.861 265.663C195.44 265.663 195.931 265.53 196.332 265.266C196.733 265.001 197.037 264.62 197.246 264.124C197.454 263.628 197.557 263.034 197.557 262.341C197.557 261.666 197.455 261.069 197.252 260.552C197.047 260.035 196.745 259.63 196.344 259.337C195.944 259.044 195.449 258.898 194.861 258.898C194.248 258.898 193.737 259.052 193.328 259.362C192.924 259.671 192.619 260.086 192.415 260.607C192.215 261.128 192.115 261.706 192.115 262.341C192.115 262.992 192.216 263.568 192.421 264.069C192.629 264.565 192.936 264.957 193.341 265.242C193.749 265.522 194.256 265.663 194.861 265.663ZM205.453 267.299C204.603 267.299 203.857 267.097 203.215 266.694C202.578 266.292 202.08 265.728 201.72 265.003C201.365 264.279 201.187 263.431 201.187 262.463C201.187 261.486 201.365 260.634 201.72 259.905C202.08 259.177 202.578 258.611 203.215 258.208C203.857 257.805 204.603 257.603 205.453 257.603C206.303 257.603 207.046 257.805 207.684 258.208C208.326 258.611 208.824 259.177 209.179 259.905C209.539 260.634 209.719 261.486 209.719 262.463C209.719 263.431 209.539 264.279 209.179 265.003C208.824 265.728 208.326 266.292 207.684 266.694C207.046 267.097 206.303 267.299 205.453 267.299ZM205.453 266.004C206.098 266.004 206.63 265.84 207.046 265.509C207.463 265.18 207.772 264.747 207.972 264.209C208.172 263.672 208.273 263.09 208.273 262.463C208.273 261.836 208.172 261.252 207.972 260.711C207.772 260.17 207.463 259.732 207.046 259.398C206.63 259.065 206.098 258.898 205.453 258.898C204.807 258.898 204.276 259.065 203.859 259.398C203.442 259.732 203.134 260.17 202.933 260.711C202.733 261.252 202.634 261.836 202.634 262.463C202.634 263.09 202.733 263.672 202.933 264.209C203.134 264.747 203.442 265.18 203.859 265.509C204.276 265.84 204.807 266.004 205.453 266.004Z" fill="#81B300"/>
</svg>
