<svg width="146" height="280" viewBox="0 0 146 280" fill="none" xmlns="http://www.w3.org/2000/svg">
<path fill-rule="evenodd" clip-rule="evenodd" d="M117.184 280H76.6601V240.623C76.6652 240.538 76.6679 240.452 76.6679 240.366C76.6674 238.084 74.8177 236.235 72.536 236.234C70.254 236.234 68.4038 238.084 68.4032 240.366H68.3944V280H27.8808V215.022H117.184V280ZM32.2694 275.644H33.1679V218.805H32.2694V275.644ZM36.6503 275.644H37.5487V218.805H36.6503V275.644ZM107.523 275.644H108.421V218.805H107.523V275.644ZM111.904 275.644H112.803V218.805H111.904V275.644ZM107.767 114.108L131.259 199.886L117.187 213.095L117.191 213.133H27.8808L13.7704 199.886L37.3271 113.871H107.745L107.767 114.108ZM69.8749 207.605H70.7734V123.282H69.8749V207.605ZM74.2558 207.605H75.1542V123.282H74.2558V207.605ZM43.2558 2.06519C48.4836 -1.57097 55.6711 -0.279537 59.3075 4.948L71.1493 21.9753C71.7139 22.7881 72.1852 23.6445 72.6044 24.5085C73.0236 23.6445 73.4941 22.7969 74.0673 21.9841L85.9609 4.99097C89.6144 -0.227948 96.8012 -1.49419 102.02 2.15894L124.499 17.8943C129.718 21.5565 130.983 28.7435 127.33 33.9626L115.436 50.9558C114.872 51.7683 114.231 52.4964 113.563 53.1892C114.521 53.2833 115.479 53.4288 116.437 53.6853L136.486 58.99L136.494 58.9646C142.646 60.5903 146.317 66.9048 144.691 73.0652L137.675 99.5906C136.049 105.742 129.734 109.412 123.574 107.787L100.267 101.622V111.501H44.7538V101.534L21.3944 107.642C15.2343 109.259 8.92815 105.562 7.31925 99.4021L0.379797 72.8601C-1.2372 66.6998 2.45894 60.3938 8.61905 58.7849L28.6845 53.5398C29.6427 53.2917 30.6012 53.1456 31.5595 53.0515C30.8923 52.3587 30.2578 51.6238 29.6933 50.8113L17.8515 33.783C14.2157 28.5553 15.508 21.3686 20.7353 17.7322L43.2558 2.06519ZM60.7109 66.9041C53.9257 66.9041 48.4316 72.4068 48.4316 79.1833C48.4319 85.9682 53.9345 91.4607 60.7109 91.4607H60.8905C63.3888 91.4605 65.6986 90.194 67.0761 88.115C68.753 85.574 71.0718 82.5198 72.5263 82.5193C73.9807 82.5193 76.2995 85.5739 77.9765 88.115C79.354 90.1942 81.6741 91.4607 84.164 91.4607H84.3173C91.1022 91.4607 96.5952 85.9596 96.5956 79.1833C96.5956 72.3982 91.0939 66.9041 84.3173 66.9041H60.7109ZM37.5478 73.8181C35.1192 73.8185 33.1504 75.7879 33.1503 78.2166C33.1507 80.6449 35.1194 82.6137 37.5478 82.614C39.9765 82.614 41.9458 80.6451 41.9462 78.2166C41.9462 75.7877 39.9767 73.8181 37.5478 73.8181ZM107.479 73.8181C105.051 73.8182 103.081 75.7877 103.081 78.2166C103.081 80.6451 105.051 82.6139 107.479 82.614C109.908 82.6139 111.876 80.6451 111.877 78.2166C111.877 75.7877 109.908 73.8182 107.479 73.8181Z" fill="#1C2024"/>
</svg>
