<svg width="86" height="59" viewBox="0 0 86 59" fill="none" role="img" xmlns="http://www.w3.org/2000/svg">
  <title>Payments</title>
  <path fill-rule="evenodd" clip-rule="evenodd" d="M82 35C84.2091 35 86 36.7909 86 39V55C86 57.2091 84.2091 59 82 59H66C63.7909 59 62 57.2091 62 55V39C62 36.7909 63.7909 35 66 35H82ZM68 48C68 51.3137 70.6863 54 74 54C77.3137 54 80 51.3137 80 48H68ZM70 41C68.8954 41 68 41.8954 68 43C68 44.1046 68.8954 45 70 45C71.1046 45 72 44.1046 72 43C72 41.8954 71.1046 41 70 41ZM78 41C76.8954 41 76 41.8954 76 43C76 44.1046 76.8954 45 78 45C79.1046 45 80 44.1046 80 43C80 41.8954 79.1046 41 78 41Z" fill="#1C2024"/>
  <path d="M82 33H75V30.7295C75.5971 30.3835 76 29.7398 76 29C76 27.8954 75.1046 27 74 27C72.8954 27 72 27.8954 72 29C72 29.7398 72.4029 30.3835 73 30.7295V33H66C62.6863 33 60 35.6863 60 39V55H8C3.58172 55 0 51.4183 0 47V16H82V33Z" fill="#1C2024"/>
  <path d="M74 0C78.4183 1.15966e-06 82 3.58172 82 8H0C0 3.58172 3.58172 0 8 0H74Z" fill="#1C2024"/>
</svg>
